<?xml version="1.0" encoding="UTF-8"?>
<svg id="_--WorkSpace" data-name="--WorkSpace" xmlns="http://www.w3.org/2000/svg" viewBox="0 0 3404.084801225481 1000.000000000001">
  <polygon points="2235.8525864022 421.250053994971 2189.8525864022 541.250053994971 2282.8525864022 541.250053994971 2236.8525864022 421.250053994971 2235.8525864022 421.250053994971"/>
  <polygon points="846.3652817147 421.250053994971 800.3652817147 541.250053994971 893.3652817147 541.250053994971 847.3652817147 421.250053994971 846.3652817147 421.250053994971"/>
  <path d="M1878.35893405845,381.250053994971c-4.671875-3.6640625-10.8359375-6.5-18.5-8.5-7.671875-2-14.5-3.1640625-20.5-3.5-6-.328125-13.3359375-.5-22-.5h-11v108h11c8.6640625,0,16-.1640625,22-.5,6-.328125,12.828125-1.5,20.5-3.5,7.6640625-2,13.828125-4.828125,18.5-8.5,4.6640625-3.6640625,8.6640625-9,12-16,3.328125-7,5-15.5,5-25.5s-1.671875-18.5-5-25.5c-3.3359375-7-7.3359375-12.328125-12-16Z"/>
  <path d="M3216.15678562095,143.652641885596H187.92826999595c-41.21923828125,0-74.63427734375,33.4150390625-74.63427734375,74.63427734375v563.426025390625c0,41.219482421875,33.4150390625,74.63427734375,74.63427734375,74.63427734375h3028.228515625c41.21923828125,0,74.634033203125-33.414794921875,74.634033203125-74.63427734375V218.286919229346c0-41.21923828125-33.414794921875-74.63427734375-74.634033203125-74.63427734375ZM486.8740707772,428.750053994971l-179,70,179,69v71l-273.5-111v-59l273.5-111v71ZM955.8652817147,706.250053994971l-30.5-82.5h-157l-30.5,82.5h-101l166.5-412.5h87l166.5,412.5h-101ZM1233.36772312095,706.250053994971h-74l-173-412.5h106l104,271,104-271h106l-173,412.5ZM1658.36576999595,376.250053994971h-142v82h136v82.5h-136v83h142v82.5h-236v-412.5h236v82.5ZM2345.3525864022,706.250053994971l-30.5-82.5h-157l-30.5,82.5h-194.9931640625l-126.00048828125-163v163h-94v-412.5h147.5c39.6640625,0,72.00048828125,10.5859375,97.00048828125,31.75,25,21.171875,37.5,51.421875,37.5,90.75,0,30.3359375-7.5859375,55.75-22.75,76.25-15.171875,20.5-35.75,34.921875-61.75048828125,43.25l124.81982421875,149.871337890625,158.173828125-391.871337890625h87l166.5,412.5h-101ZM2835.3506332772,564.750053994971c-10.671875,49-34,86.0859375-70,111.25-36,25.171875-76.171875,37.75-120.5,37.75-55.671875,0-103.0859375-20.828125-142.25-62.5-39.171875-41.6640625-58.75-92-58.75-151,0-60,19.1640625-110.6640625,57.5-152,38.328125-41.328125,86.1640625-62,143.5-62,67,0,120,23.5,159,70.5l-61.5,67.5c-22-35.328125-52.671875-53-92-53-29,0-53.75,12.5859375-74.25,37.75-20.5,25.171875-30.75,55.5859375-30.75,91.25,0,35,10.25,64.921875,30.75,89.75,20.5,24.8359375,45.25,37.25,74.25,37.25,24,0,44.9140625-7.25,62.75-21.75,17.828125-14.5,26.75-33.75,26.75-57.75h-95v-72.5h190.5v89.5ZM3112.8477035897,376.250053994971h-142v82h136v82.5h-136v83h142v82.5h-236v-412.5h236v82.5Z"/>
</svg>