<?xml version="1.0" encoding="UTF-8"?>
<svg id="_--WorkSpace" data-name="--WorkSpace" xmlns="http://www.w3.org/2000/svg" viewBox="0 0 1000.000000000002 999.999999999998">
  <circle cx="500.000000000004" cy="499.999999999999" r="127.504429509127"/>
  <path d="M290.795057255591,668.115991045177c37.655540690241,6.329839941427,77.806083467891,10.997654870298,119.74831278389,13.770315982652-67.067096793009-33.049282243312-113.2285645471-102.063266491918-113.2285645471-181.886307027831s46.161467754091-148.838334496899,113.229219403291-181.88761674022c-41.942884172189,2.772661112362-82.093426949839,7.440476041231-119.74896764008,13.77031598266,21.477973349771-80.711025530809,57.91024267538-146.922225282269,103.14443406313-187.789180732778-153.38238160569,45.64085708231-265.243606426144,187.698810578429-265.243606426144,355.906481490338s111.861224820454,310.264314695647,265.244261282334,355.90648149034c-45.23484624394-40.866955450507-81.66777042574-107.079464914357-103.14508891932-187.790490445161Z"/>
  <path d="M606.06050868129,144.09351850966c45.228297682032,40.861716600979,81.657947582871,107.062438653389,103.136575788842,187.760367060378-37.65292126548-6.32853022905-77.8126320298-10.98717717125-119.762064763901-13.751980009309,67.07888420444,33.045353106168,113.250174801391,102.067195629061,113.250174801391,181.898094439268s-46.171290596951,148.852741333099-113.250174801391,181.896784726887c41.949432734102-2.764802838064,82.109143498421-7.42214006788,119.76271962009-13.750670296926-21.47862820597,80.697928406986-57.908932962999,146.898650459396-103.137885501219,187.760367060378,153.383036461879-45.642166794692,265.244261282331-187.698810578429,265.244261282331-355.90648149034s-111.861224820452-310.264314695649-265.243606426142-355.906481490338Z"/>
</svg>