<?xml version="1.0" encoding="UTF-8"?>
<svg id="_--WorkSpace" data-name="--WorkSpace" xmlns="http://www.w3.org/2000/svg" viewBox="0 0 1000 999.999999999998">
  <path d="M252.287209711751,142.67002836706h-96.54907226563c-6.73681640625,0-12.19799804687,5.461303710939-12.19799804687,12.1982421875v26.0908203125h35.3544921875v19.0498046875h-35.3544921875v28.630859375h35.3544921875v19.05078125h-35.3544921875v28.630859375h35.3544921875v19.05078125h-35.3544921875v28.630859375h35.3544921875v19.05078125h-35.3544921875v28.630859374998h35.3544921875v19.050781249998h-35.3544921875v28.630859375h35.3544921875v19.0498046875h-35.3544921875v28.6318359375h35.3544921875v19.0498046875h-35.3544921875v28.6318359375h35.3544921875v19.0498046875h-35.3544921875v28.6318359375h35.3544921875v19.0498046875h-35.3544921875v28.630859375h35.3544921875v19.05078125h-35.3544921875v28.630859375h35.3544921875v19.05078125h-35.3544921875v28.630859375h35.3544921875v19.05078125h-35.3544921875v28.630859375h35.3544921875v19.05078125h-35.3544921875v28.630859375h35.3544921875v19.0498046875h-35.3544921875v24.998901367188c0,6.736938476562,5.46118164062,12.198120117191,12.19799804687,12.198120117191h96.54907226563c6.73706054687,0,12.1982421875-5.461181640629,12.1982421875-12.198120117191V154.86827055456c0-6.736938476561-5.46118164063-12.1982421875-12.1982421875-12.1982421875Z"/>
  <path d="M309.064553461751,143.63792387487c-1.86376953125,2.2412109375-3.03735351563,5.43566894532-3.037109375,8.992553710939l.00024414062,86.017333984379h34.99658203125v19.05078125h-34.99658203125v28.630859375h34.99658203125v19.05078125h-34.99658203125l.00024414063,28.630859375h34.99633789062v19.05078125h-34.99633789062v28.630859374998h34.99633789062v19.050781249998h-34.99633789062v28.630859375h34.99633789062v19.0498046875h-34.99633789062l.00024414062,28.6318359375h34.99609375v19.0498046875h-34.99609375v28.6318359375h34.99609375v19.0498046875h-34.99584960937v28.6318359375h34.99584960937v19.0498046875h-34.99584960937v28.630859375h34.99584960937v19.05078125h-34.99584960937v28.630859375h34.99584960937v19.05078125h-34.99560546875v28.630859375h34.99560546875v19.05078125h-34.99560546875v28.630859375h34.99560546875v19.05078125h-34.99536132812v62.860473632809c0,6.769897460941,4.22607421875,12.25341796875,9.43920898437,12.247680664062l29.25463867188-.03173828125v-35.519897460941h19.0498046875v35.499389648441l28.630859375-.031005859371v-35.46838378907h19.05078125v35.44775390625l28.630859375-.031005859371v-35.416748046879h19.05078125v35.39611816407l28.630859375-.031005859379v-35.365112304691h19.05078125v35.344482421879l28.630859375-.031005859379v-35.3134765625h19.05078125v35.292846679691l28.630859375-.031005859371v-35.26184082032h19.0498046875v35.24133300782l28.6318359375-.031005859379v-35.210327148441h19.0498046875v35.18957519532l28.6318359375-.031005859379v-35.158569335941h19.0498046875v35.138061523441l28.6318359375-.031005859371v-35.10705566407h19.0498046875v35.08642578125l104.17895507812-.11279296875c2.55151367188-.00280761718,4.86254882813-1.32568359375,6.5615234375-3.46374511718L309.064553461751,143.63792387487ZM408.107522211751,746.063827195185c-.10375976563-108.46435546875-.20727539063-216.9287109375-.31103515625-325.39306640625,85.42578125,108.712646484371,170.85180664062,217.42529296875,256.27758789062,326.137939453121-85.32202148437-.248291015621-170.64453125-.49658203125-255.96655273437-.744873046871Z"/>
</svg>