<?xml version="1.0" encoding="UTF-8"?>
<svg id="_--WorkSpace" data-name="--WorkSpace" xmlns="http://www.w3.org/2000/svg" viewBox="0 0 1000 999.999999999998">
  <g>
    <path d="M420.04570584959,541.997600138888c-42.92126464844,42.554809570312-85.84252929688,85.109741210941-128.76391601563,127.664367675781-12.00183105468.132690429688-24.00268554687.266418457031-36.0048828125.398620605469-31.42407226562,31.285522460938-62.84838867187,62.570495605469-94.2724609375,93.85498046875,1.60864257813.271118164062,47.35888671875,10.670104980469,61.54956054688,13.601501464844,2.93090820312,14.190063476562,13.33032226562,59.940979003906,13.600952148439,61.548950195312,31.28454589843-31.423889160156,62.569458007811-62.848388671875,93.85498046875-94.272338867188.13220214843-12.002319335938.26599121093-24.003112792969.398559570311-36.004943847656,43.67456054687-44.050903320312,87.34924316406-88.10150146484,131.023803710939-132.152282714844-13.79553222657-11.546264648438-27.59106445313-23.092590332031-41.386596679689-34.638854980469Z"/>
    <path d="M703.4081326074,187.821574748259c-.28930664062.05004882813-1.037109375.219116210941-1.70581054687.85766601563-.734741210939.70141601562-.916381835939,1.53247070312-.96533203125,1.8134765625,8.903442382811,15.1357421875,17.806274414061,30.27075195312,26.70971679687,45.40649414062-26.39807128906,26.61340332032-52.79602050781,53.22680664063-79.19445800781,79.8408203125-34.892211914061,34.593933105471-69.7841796875,69.188049316412-104.67626953125,103.782165527347,11.505859375,13.149475097656,23.01171875,26.298950195312,34.51733398437,39.448364257812,35.41247558594-35.717346191406,70.82470703125-71.434875488279,106.2373046875-107.152221679689,26.61389160157-26.398498535151,53.22729492188-52.796569824221,79.84069824219-79.194519042971,15.13562011719,8.90344238282,30.27075195313,17.80639648438,45.40637207031,26.70971679688.26904296875-.018188476561.98413085938-.104614257811,1.64135742188-.6494140625.91015625-.75512695313,1.013671875-1.81616210938,1.02978515625-2.02172851563,8.91552734375-45.24291992187,17.83129882812-90.485473632809,26.74670410156-135.728515625-45.19567871094,8.962890625-90.39172363281,17.92504882813-135.58740234375,26.8876953125Z"/>
  </g>
  <g>
    <path d="M650.85252521325,701.195799216208c.02693755233.023570358288.051854788239.044446961347.07879234057.068017319634l50.71802352797-50.718696966771c-.02289691948-.026937552331-.044446961349-.05118134943-.06734388083-.078118901758,36.74551513411-36.745515134109,57.16215948424-57.162159484247,93.90767461835-93.907674618356-7.40041906401-3.955106120931-19.75128680757-9.389757303619-35.9623058001-11.354178307327-16.903987526231-2.048600854738-30.697361197091.561647966093-38.9288037505,2.775241328854-5.34441038238,5.314779074819-11.115107530391,11.015438586772-17.277072626011,17.060898768559-6.484542284769,6.361302982859-9.45844806206,9.212642897048-20.567494643179,20.197776737448l.119872107869.119872107869-89.916202801769,89.917549679391c.002693755229.002693755232.00538751047.005387510464.00875470451.0080812657l-45.21198783161,45.212661270409c-2.04253990546,8.424719491381-4.1241392618,21.326460180098-2.5752300028,36.928017051148,1.697739235639,17.099958219434,7.048210567289,30.295991667364,11.074027763089,38.37052297845,26.142894536811-26.142894536802,68.456401737641-68.457075176448,94.59929627444-94.59996971325Z"/>
    <path d="M667.91073022658,583.715745992196c-123.9652689476-139.813977861271-247.92986445638-279.628629161358-371.89513340397-419.442607022627-51.29987465831-7.335768938419-102.59907587781-14.672211315639-153.89895053611-22.00798025406,8.08059226035,50.324061825131,16.16118452071,100.64879708907,24.241776781069,150.972858914201,139.27926744751,124.730968872591,278.559208333831,249.462611183986,417.83847578134,374.192906617765l83.71383137767-83.715178255279ZM214.55172450335,205.02224781881l388.450279627521,388.447585872284-8.87929068695,8.880637564576L205.67310725521,213.90355882219l8.87861724814-8.881311003381Z"/>
    <path d="M851.70362946152,770.570098049511c-3.33688929495-.248498920249-8.25433947289-.777821823547-14.07285077629-2.040519589042-15.03384795568-3.263484464846-31.506834644621-10.430893701199-51.22040887893-26.899166318482-20.5277617535-17.148445813629-24.44919593402-20.731813712402-77.09796852528-82.142025199177l-49.44387730273,49.44455074154c59.772408305071,51.311996556859,62.726784356931,54.424630728652,80.723763068971,75.415718382235,12.51249305754,14.595439291505,23.717167949439,31.162033974797,28.46895218055,53.077753112124,1.275493102849,5.884508306612,1.79808161806,10.827549159269,2.04051958904,14.072850776291,21.755440700959,12.434374155786,52.448761265199,5.268311797052,69.502925645669-12.614855756397,16.47635388299-17.277746064818,23.206027893971-47.369685773279,11.098944999-68.314306149092Z"/>
  </g>
</svg>