<?xml version="1.0" encoding="UTF-8"?>
<svg id="_--WorkSpace" data-name="--WorkSpace" xmlns="http://www.w3.org/2000/svg" viewBox="0 0 1276.873452787898 1000">
  <path d="M827.009696181048,506.000009303676c-17.3359375,0-32.0859375,6.0859375-44.25,18.25-12.171875,12.171875-18.25,27.421875-18.25,45.75,0,18,5.828125,32.921875,17.5,44.75,11.6640625,11.8359375,26.6640625,17.75,45,17.75,18.328125,0,33.5-5.9140625,45.5-17.75,12-11.828125,18-26.75,18-44.75,0-18.328125-6.0859375-33.578125-18.25-45.75-12.171875-12.1640625-27.25-18.25-45.25-18.25Z"/>
  <path d="M1080.332450087298,143.652536159145H176.524832899798c-41.21923828125,0-74.6337890625,33.4150390625-74.6337890625,74.63427734375v563.426330566406c0,41.219482421875,33.41455078125,74.63427734375,74.6337890625,74.63427734375h903.8076171875c41.21923828125,0,74.634033203125-33.414794921875,74.634033203125-74.63427734375V218.286813502895c0-41.21923828125-33.414794921875-74.63427734375-74.634033203125-74.63427734375ZM484.414969618548,425.000009303676l-179,70,179,69v71l-273.5-111v-59l273.5-111v71ZM971.259696181048,632.750009303676c-8.8359375,18.5-20.671875,33.171875-35.5,44-14.8359375,10.8359375-31.0859375,19.0859375-48.75,24.75-17.671875,5.6640625-36.171875,8.5-55.5,8.5-46.3359375,0-85.3359375-13.5-117-40.5-31.671875-27-47.5-60.1640625-47.5-99.5,0-33.328125,4.6640625-60.75,14-82.25,9.328125-21.5,26.328125-48.9140625,51-82.25l97-115.500061035156h116l-121.5,141.500061035156c7-4,16.828125-6,29.5-6,14.6640625,0,29.5,3.0859375,44.5,9.25,15,6.171875,29.078125,15,42.25,26.5,13.1640625,11.5,23.9140625,26.75,32.25,45.75,8.328125,19,12.5,40,12.5,63,0,23.3359375-4.421875,44.25-13.25,62.75Z"/>
</svg>