<?xml version="1.0" encoding="UTF-8"?>
<svg id="_--WorkSpace" data-name="--WorkSpace" xmlns="http://www.w3.org/2000/svg" viewBox="0 0 1276.873452787896 1000">
  <path d="M1090.340424359569,143.652536159145H186.532807172069c-41.21923828125,0-74.6337890625,33.4150390625-74.6337890625,74.63427734375v563.426330566406c0,41.219482421875,33.41455078125,74.63427734375,74.6337890625,74.63427734375h903.8076171875c41.21923828125,0,74.634033203125-33.414794921875,74.634033203125-74.63427734375V218.286813502895c0-41.21923828125-33.414794921875-74.63427734375-74.634033203125-74.63427734375ZM494.422699750194,425.000009303676l-179,70,179,69v71l-273.5-111v-59l273.5-111v71ZM942.768402875194,671.750009303676c-28.8359375,25.5-65.421875,38.25-109.75,38.25-40.3359375,0-72.671875-8.75-97-26.25-24.3359375-17.5-41-38.578125-50-63.25l74.5-36c9.328125,31.3359375,33.5,47,72.5,47,17,0,31.078125-5.6640625,42.25-17,11.1640625-11.328125,16.75-25.6640625,16.75-43,0-17.328125-5.421875-31.578125-16.25-42.75-10.8359375-11.1640625-23.8359375-18.9140625-39-23.25-15.171875-4.328125-32.421875-6.5-51.75-6.5-27.3359375,0-50.8359375,4.3359375-70.5,13l34.5-222.000061035156h210.5v82.500061035156h-130l-9,57.5c1,0,2.828125-.078125,5.5-.25,2.6640625-.1640625,4.6640625-.25,6-.25,21,0,40.078125,2.3359375,57.25,7,17.1640625,4.671875,33.328125,12.171875,48.5,22.5,15.1640625,10.3359375,27,25.3359375,35.5,45,8.5,19.671875,12.75,43.171875,12.75,70.5,0,39.3359375-14.421875,71.75-43.25,97.25Z"/>
</svg>