<?xml version="1.0" encoding="UTF-8"?>
<svg id="_--WorkSpace" data-name="--WorkSpace" xmlns="http://www.w3.org/2000/svg" viewBox="0 0 1276.873452787891 1000">
  <path d="M1090.34042139513,143.652536159145H186.53280420763c-41.21923828125,0-74.6337890625,33.4150390625-74.6337890625,74.63427734375v563.426330566406c0,41.219482421875,33.41455078125,74.63427734375,74.6337890625,74.63427734375h903.8076171875c41.21923828125,0,74.634033203125-33.414794921875,74.634033203125-74.63427734375V218.286813502895c0-41.21923828125-33.414794921875-74.63427734375-74.634033203125-74.63427734375ZM494.42245264513,432.500009303676l-179,70,179,69v71l-273.5-111v-59l273.5-111v71ZM998.018888192005,710.000009303676h-321.5v-23.5c5.6640625-4.6640625,13.328125-11.078125,23-19.25,9.6640625-8.1640625,26.6640625-23.75,51-46.75,24.328125-23,45.828125-44.578125,64.5-64.75,18.6640625-20.1640625,35.6640625-41.75,51-64.75,15.328125-23,23-41.6640625,23-56,0-5.6640625-.5859375-11.328125-1.75-17-1.171875-5.6640625-3.421875-12.578125-6.75-20.75-3.3359375-8.1640625-9.3359375-14.828125-18-20-8.671875-5.1640625-19.3359375-7.75-32-7.75-13.3359375,0-26.0859375,6.5859375-38.25,19.75-12.171875,13.171875-21.0859375,26.25-26.75,39.25l-8.5,19.5-78.5-38c1-3.328125,2.6640625-7.6640625,5-13,2.328125-5.328125,7.828125-14.9140625,16.5-28.75,8.6640625-13.828125,18.25-26,28.75-36.500061035156,10.5-10.5,24.828125-20.078125,43-28.75,18.1640625-8.6640625,37.75-13,58.75-13,27,0,50.578125,3.421875,70.75,10.25,20.1640625,6.8359375,35.75,15.3359375,46.75,25.5,11,10.171875,19.9140625,22.171936035156,26.75,36.000061035156,6.828125,13.8359375,11.1640625,26.421875,13,37.75,1.828125,11.3359375,2.75,23.171875,2.75,35.5,0,18-5,36.921875-15,56.75-10,19.8359375-22.0859375,37.5-36.25,53-14.171875,15.5-28.421875,29.671875-42.75,42.5-14.3359375,12.8359375-26.5,22.75-36.5,29.75l-15,10.5h153v82.5Z"/>
</svg>