<?xml version="1.0" encoding="UTF-8"?>
<svg id="_--WorkSpace" data-name="--WorkSpace" xmlns="http://www.w3.org/2000/svg" viewBox="0 0 1276.87345278789 1000">
  <path d="M837.51896759592,368.750009303676c-22.671875,0-40.5,11.5859375-53.5,34.75-13,23.171875-19.5,55.421875-19.5,96.75,0,43.671875,6.328125,76.421875,19,98.25,12.6640625,21.8359375,30.6640625,32.75,54,32.75,23,0,40.828125-10.9140625,53.5-32.75,12.6640625-21.828125,19-54.578125,19-98.25,0-41.6640625-6.421875-74-19.25-97-12.8359375-23-30.5859375-34.5-53.25-34.5Z"/>
  <path d="M1090.34025665842,143.652536159145H186.53263947092c-41.21923828125,0-74.6337890625,33.4150390625-74.6337890625,74.63427734375v563.426330566406c0,41.219482421875,33.41455078125,74.63427734375,74.6337890625,74.63427734375h903.8076171875c41.21923828125,0,74.63427734375-33.414794921875,74.63427734375-74.63427734375V218.286813502895c0-41.21923828125-33.4150390625-74.63427734375-74.63427734375-74.63427734375ZM494.42277618967,428.750009303676l-179,70,179,69v71l-273.5-111v-59l273.5-111v71ZM991.51896759592,597.750009303676c-9,28-21.421875,50.25-37.25,66.75-15.8359375,16.5-33.5,28.8359375-53,37s-40.75,12.25-63.75,12.25-44.25-4.0859375-63.75-12.25-37.25-20.5-53.25-37-28.5-38.75-37.5-66.75-13.5-60.5-13.5-97.5c0-68,16.1640625-120.6640625,48.5-158,32.328125-37.328186035156,72.1640625-56.000061035156,119.5-56.000061035156,47.328125,0,87.078125,18.671875,119.25,56.000061035156,32.1640625,37.3359375,48.25,90,48.25,158,0,37-4.5,69.5-13.5,97.5Z"/>
</svg>