<?xml version="1.0" encoding="UTF-8"?>
<svg id="_--WorkSpace" data-name="--WorkSpace" xmlns="http://www.w3.org/2000/svg" viewBox="0 0 1276.873452787897 1000">
  <path d="M1090.340341991216,143.652536159145H186.532846874028c-41.21923828125,0-74.633666992188,33.4150390625-74.633666992188,74.63427734375v563.426330566406c0,41.219482421875,33.414428710938,74.63427734375,74.633666992188,74.63427734375h903.807495117188c41.21923828125,0,74.634094238281-33.414794921875,74.634094238281-74.63427734375V218.286813502895c0-41.21923828125-33.414855957031-74.63427734375-74.634094238281-74.63427734375ZM494.422617381841,428.750009303676l-179,70,179,69v71l-273.5-111v-59l273.5-111v71ZM997.270273631841,619.250009303676h-48v87h-88v-87h-203v-28l198-297.500061035156h93v243.000061035156h48v82.5Z"/>
  <polygon points="786.770273631841 536.750009303676 861.270273631841 536.750009303676 861.270273631841 419.250009303676 860.270273631841 419.250009303676 786.770273631841 536.750009303676"/>
</svg>