<?xml version="1.0" encoding="UTF-8"?>
<svg id="_--WorkSpace" data-name="--WorkSpace" xmlns="http://www.w3.org/2000/svg" viewBox="0 0 1276.873452787899 1000">
  <path d="M1090.340503763489,143.652536159145H186.532886575989c-41.21923828125,0-74.6337890625,33.4150390625-74.6337890625,74.63427734375v563.426330566406c0,41.219482421875,33.41455078125,74.63427734375,74.6337890625,74.63427734375h903.8076171875c41.21923828125,0,74.634033203125-33.414794921875,74.634033203125-74.63427734375V218.286813502895c0-41.21923828125-33.414794921875-74.63427734375-74.634033203125-74.63427734375ZM494.423023294739,428.750009303676l-179,70,179,69v71l-273.5-111v-59l273.5-111v71ZM944.267749857239,675.500009303676c-28.8359375,25.5-65.421875,38.25-109.75,38.25-23.671875,0-45.171875-3.5-64.5-10.5-19.3359375-7-34.421875-15.4140625-45.25-25.25-10.8359375-9.828125-19.8359375-19.75-27-29.75-7.171875-10-12.0859375-18.5-14.75-25.5l-3.5-10.5,87-42.5c0,1.671875.25,3.921875.75,6.75.5,2.8359375,2.25,7.921875,5.25,15.25,3,7.3359375,6.6640625,13.75,11,19.25,4.328125,5.5,10.9140625,10.5,19.75,15,8.828125,4.5,19.078125,6.75,30.75,6.75,17.6640625,0,32-4.828125,43-14.5,11-9.6640625,16.5-23,16.5-40,0-17.6640625-5.75-32.1640625-17.25-43.5-11.5-11.328125-25.5859375-17-42.25-17l-18,3v-61.5h20.5c13,0,24.5-5,34.5-15s15-22.328125,15-37c0-13-5.0859375-23.828125-15.25-32.5-10.171875-8.6640625-22.0859375-13-35.75-13-9.671875,0-18.421875,1.75-26.25,5.25-7.8359375,3.5-13.8359375,7.75-18,12.75-4.171875,5-7.671875,10-10.5,15-2.8359375,5-4.5859375,9.171875-5.25,12.5l-1.5,5.5-74-36c.6640625-2.328125,1.6640625-5.578125,3-9.75,1.328125-4.1640625,5.328125-11.4140625,12-21.75,6.6640625-10.328186035156,14.5-19.500061035156,23.5-27.500061035156s22.1640625-15.25,39.5-21.75c17.328125-6.5,36.828125-9.75,58.5-9.75,39.328125,0,71.75,11.25,97.25,33.75,25.5,22.500061035156,38.25,51.250061035156,38.25,86.250061035156,0,32.671875-12.171875,58.5-36.5,77.5,35,21.3359375,52.5,52.8359375,52.5,94.5,0,39.3359375-14.421875,71.75-43.25,97.25Z"/>
</svg>