<?xml version="1.0" encoding="UTF-8"?>
<svg id="_--WorkSpace" data-name="--WorkSpace" xmlns="http://www.w3.org/2000/svg" viewBox="0 0 2737.34683088334 999.999999999996">
  <path d="M2544.668589400205,143.652707355574h-73.031982421875c-1.697509765625,0-3.376953125.077270507812-5.046142578125.188842773438H761.146616743955c-1.668701171875-.111572265625-3.34716796875-.188842773438-5.04443359375-.188842773438H192.67811088458c-41.21923828125,0-74.63427734375,33.414978027344-74.63427734375,74.634155273438v563.42626953125c0,41.219116210938,33.4150390625,74.634155273438,74.63427734375,74.634155273438h563.424072265625c1.697509765625,0,3.37646484375-.077270507812,5.04638671875-.188842773438h1705.442626953125c1.66943359375.111572265625,3.347900390625.188842773438,5.04541015625.188842773438h73.031982421875c41.21923828125,0,74.63427734375-33.4150390625,74.63427734375-74.634155273438V218.286862629011c0-41.219177246094-33.4150390625-74.634155273438-74.63427734375-74.634155273438ZM2594.302866743955,781.713132160261c0,27.368408203125-22.265747070312,49.634155273438-49.63427734375,49.634155273438h-73.031982421875c-.94482421875,0-2.018310546875-.042236328125-3.37841796875-.133056640625l-.832763671875-.055786132812H760.31482963458l-.832275390625.055419921875c-1.361328125.091186523438-2.435546875.133422851562-3.38037109375.133422851562H192.67811088458c-27.3681640625,0-49.63427734375-22.265747070312-49.63427734375-49.634155273438V218.286862629011c0-27.368408203125,22.26611328125-49.634155273438,49.63427734375-49.634155273438h563.424072265625c.944580078125,0,2.017578125.042297363281,3.377197265625.133056640625l.832763671875.055786132812h1707.112548828125l.832763671875-.055786132812c1.360107421875-.090759277344,2.433837890625-.133056640625,3.379150390625-.133056640625h73.031982421875c27.368530273438,0,49.63427734375,22.265747070312,49.63427734375,49.634155273438v563.42626953125Z"/>
  <path d="M1255.90711479083,481.729855793074c2.029296875,8.346069335938-17.94482421875,89.038940429688-22.63916015625,101.405395507812-1.22509765625,3.227905273438-1.4453125,6.408325195312-4.79931640625,8.482666015625l-64.14013671875-138.677490234375-66.6875,138.75439453125-27.59375-103.436767578125,10.20556640625-21.90625h-90.79931640625l59.99462890625,248.168090820312,62.9501953125-1.419799804688,49.336181640625-116.12158203125,52.3623046875,117.024536132812,68.989501953125.193237304688,56.2109375-247.844482421875h-90.799072265625c-1.049072265625,6.40673828125,6.155517578125,10.22216796875,7.408935546875,15.378051757812Z"/>
  <path d="M434.87147025958,488.123532550886c-10.7646484375-7.047119140625-46.5009765625-21.771728515625-58.31201171875-21.771728515625h-137.53369140625c1.9736328125,10.709228515625,9.35546875,19.627685546875,10.74658203125,30.600341796875,4.72119140625,37.248779296875,4.1845703125,146.19921875.07861328125,184.1943359375-1.38134765625,12.785888671875-7.87890625,21.322021484375-10.8251953125,33.188232421875h142.875c5.0927734375,0,33.3857421875-10.642944335938,39.58642578125-13.803955078125,75.362060546875-38.421630859375,84.382080078125-165.927490234375,13.38427734375-212.4072265625ZM324.48377494708,658.338498371199v-141.323608398438c29.73681640625,1.856323242188,61.93212890625,4.962768554688,74.2275390625,36.54443359375,20.36962890625,52.320556640625-13.21044921875,113.583618164062-74.2275390625,104.779174804688Z"/>
  <path d="M663.64588432208,620.978513019636c6.8623046875-8.806518554688,20.308349609375-10.206787109375,30.25830078125-16.409912109375,58.432861328125-36.428955078125,39.4677734375-128.560546875-31.594482421875-138.216796875-46.989013671875-6.385009765625-107.743896484375,4.76025390625-156.227783203125,0,1.97265625,11.81591796875,9.214111328125,21.158813476562,10.681396484375,33.331909179688,4.797607421875,39.800903320312,3.660400390625,135.078491210938.11572265625,176.101684570312-1.3388671875,15.4951171875-6.948486328125,24.341064453125-10.797119140625,38.54931640625h96.14013671875c.7978515625-5.80322265625-10.68212890625-16.213623046875-10.68212890625-19.998779296875v-67.9951171875l14.2470703125.442626953125,40.661865234375,68.831420898438-4.168212890625,18.719848632812h101.481201171875l-57.439208984375-90.638427734375-22.6767578125-2.7177734375ZM650.43250541583,550.435910480574c-1.56201171875,33.728393554688-31.376953125,35.415405273438-58.892578125,33.241088867188v-67.995239257812l5.465087890625-2.901977539062c29.553955078125,1.905883789062,55.162109375.203247070312,53.427490234375,37.656127929688Z"/>
  <path d="M799.84363822833,466.351804035261c5.449951171875,21.627319335938,2.80126953125,32.96142578125-.828857421875,53.832641601562-8.171142578125,46.977172851562-21.529541015625,117.615600585938-35.177978515625,162.197875976562-3.476806640625,11.3564453125-9.689453125,21.36962890625-14.73388671875,31.952392578125h93.4697265625c-10.53857421875-19.361083984375.81494140625-38.60205078125,2.670654296875-58.66259765625h53.4111328125c1.855712890625,20.060546875,13.209228515625,39.301513671875,2.670654296875,58.66259765625h85.4580078125l-54.74658203125-247.98291015625h-132.19287109375ZM850.58436088458,605.008908527449l16.058837890625-95.986206054688c5.099853515625.918701171875,4.414794921875,5.559936523438,5.441162109375,9.1904296875,7.902587890625,27.956298828125,10.046875,58.351318359375,15.887939453125,86.795776367188h-37.387939453125Z"/>
  <path d="M1548.366831587705,549.592770832136c-4.51513671875-3.298583984375-8.351806640625-5.77978515625-8.184814453125-12.171264648438,8.064697265625-23.302856445312,45.00244140625-17.206176757812,62.26416015625-7.172485351562,13.45751953125,7.82275390625,19.22119140625,24.287841796875,35.94921875,21.441162109375l7.998291015625-87.992919921875c-21.078369140625,10.642822265625-38.703125-.90185546875-60.128173828125-2.619873046875-47.755859375-3.829345703125-115.632080078125,9.159301757812-118.875,67.8544921875-1.7626953125,31.9072265625,12.95068359375,53.947998046875,39.349609375,70.212158203125,16.265625,10.020874023438,73.1650390625,24.19921875,70.3212890625,44.34716796875-11.323486328125,23.846435546875-42.70849609375,18.05712890625-62.5,9.172241210938-18.196044921875-8.168823242188-25.35791015625-27.632690429688-44.4013671875-26.334716796875l-7.98779296875,88.0048828125c22.2822265625-11.928344726562,46.702392578125,3.257568359375,70.79931640625,5.275268554688,60.273681640625,5.046875,134.87890625-15.407958984375,122.916015625-90.741088867188-9.4091796875-59.252563476562-74.127685546875-54.880004882812-107.520751953125-79.275024414062Z"/>
  <path d="M1988.243784712705,655.672116535261v-37.330810546875h64.093505859375v-53.32958984375h-64.093505859375v-37.330810546875h68.099365234375c3.0517578125,0,16.634765625,11.97265625,22.69970703125,10.665893554688v-71.994995117188h-176.257080078125c1.971923828125,11.814453125,9.213623046875,21.157104492188,10.681396484375,33.331909179688,4.525634765625,37.539428710938,4.36083984375,143.614379882812.135986328125,181.454711914062-1.46630859375,13.132568359375-8.804931640625,20.7392578125-10.8173828125,33.1962890625h178.927734375v-69.32861328125c-4.281982421875.517822265625-15.212158203125,10.666015625-17.358642578125,10.666015625h-76.111083984375Z"/>
  <path d="M2198.26160697833,655.293820636824l-4.384521484375-36.952514648438h66.763916015625v-53.32958984375h-66.763916015625v-37.330810546875h70.769775390625c3.0517578125,0,16.635009765625,11.97265625,22.699951171875,10.665893554688v-71.994995117188h-176.257080078125c1.184814453125,12.417236328125,9.150146484375,20.310668945312,10.681396484375,33.331909179688,4.742431640625,40.33251953125,3.685791015625,134.656127929688.11669921875,176.102661132812-1.397216796875,16.223266601562-7.58056640625,23.799560546875-10.798095703125,38.54833984375h178.927734375v-69.32861328125c-25.421630859375,19.204467773438-61.447998046875,7.962036132812-91.755859375,10.287719726562Z"/>
  <path d="M1667.77625541583,473.018063800886v67.995239257812c6.2294921875,1.65185546875,16.8974609375-10.665893554688,20.029296875-10.665893554688h45.399658203125l4.005859375,3.999755859375v154.655883789062c0,3.359985351562-13.362060546875,17.991088867188-10.682373046875,25.331665039062h98.810791015625c.1044921875-4.44580078125-10.68212890625-16.314697265625-10.68212890625-17.332275390625v-166.655029296875h49.4052734375c.961669921875,0,12.206787109375,9.943725585938,16.043701171875,10.595336914062l3.985595703125-3.929077148438v-70.661865234375h-218.986083984375c-.96875,2.828857421875,2.67041015625,5.796875,2.67041015625,6.666259765625Z"/>
  <path d="M2478.29188041583,653.005612629011h-70.769775390625v-169.321655273438c0-1.140502929688,13.795654296875-14.647827148438,10.68212890625-17.332153320312h-101.481201171875c5.570556640625,11.469482421875,12.072509765625,22.7685546875,13.49560546875,35.854858398438,3.991943359375,36.709350585938,4.51025390625,142.882690429688-.078857421875,178.860717773438-1.5029296875,11.782592773438-10.22119140625,21.263061523438-10.746337890625,33.267333984375h178.927734375l-2.68603515625-71.98046875c-2.727783203125-3.11767578125-16.168701171875,10.6513671875-17.34326171875,10.6513671875Z"/>
  <path d="M1024.183237837705,435.699460285261l33.338623046875-68.025146484375,27.75927734375,67.762939453125,41.763427734375-1.026245117188,33.324951171875-146.713500976562h-53.4111328125c9.9599609375,23.08837890625-7.712158203125,50.315185546875-10.717529296875,74.654418945312l-38.71728515625-82.683715820312-40.060302734375,82.709228515625-17.16259765625-60.337646484375,5.17626953125-14.34228515625h-56.081787109375l34.990966796875,149.041748046875,39.797119140625-1.039794921875Z"/>
  <path d="M883.31482963458,439.036618488386c86.24462890625-13.394897460938,83.4853515625-169.339599609375-36.038818359375-153.311279296875-93.6669921875,12.560791015625-87.267822265625,172.46240234375,36.038818359375,153.311279296875ZM852.489390181455,322.952756183699c59.642578125-14.115356445312,53.895263671875,93.092407226562,3.40234375,80.8759765625-33.292236328125-8.054809570312-31.115234375-74.317260742188-3.40234375-80.8759765625Z"/>
  <path d="M1658.429331587705,287.697507160261h-81.4521484375c3.918212890625,7.23779296875,7.052490234375,14.292114257812,8.0107421875,22.666015625,2.700439453125,23.59814453125,2.142578125,74.58447265625.116943359375,98.774658203125-.90478515625,10.807739257812-2.323974609375,18.570556640625-8.127685546875,27.88232421875h86.793212890625c76.453857421875,0,83.537109375-149.322998046875-5.341064453125-149.322998046875ZM1627.717905806455,402.356198566511v-82.660888671875c67.581298828125-10.380615234375,63.853759765625,92.749145507812,0,82.660888671875Z"/>
  <path d="M1902.783335493955,359.661984699324l1.663330078125-5.49267578125c37.65087890625-18.049682617188,23.90087890625-61.0322265625-16.348876953125-66.471801757812-26.26806640625-3.550048828125-59.699951171875,2.627685546875-86.793212890625,0,.41650390625,8.52734375,4.788818359375,13.38037109375,5.4853515625,22.520874023438,2.20654296875,28.957641601562,2.21875,77.907836914062-.140869140625,106.807006835938-.619873046875,7.590576171875-4.500244140625,12.825317382812-5.344482421875,19.9951171875h94.804931640625c42.518798828125,0,57.991455078125-72.441528320312,6.673828125-77.358520507812ZM1877.992808150205,320.433347004011c12.600341796875,15.668701171875-10.128173828125,32.785888671875-25.94677734375,28.603515625l-.011474609375-34.687744140625c6.4111328125-.88671875,21.981201171875,1.138671875,25.958251953125,6.084228515625ZM1852.04529838458,410.355710285261v-39.997314453125c46.641357421875-6.0654296875,49.25,48.563232421875,0,39.997314453125Z"/>
  <path d="M1411.515269087705,384.914426105574c-4.664306640625-3.781616210938-7.490966796875-4.46826171875-13.465087890625-3.918823242188,3.423828125-6.45068359375,11.376708984375-5.98388671875,17.384033203125-10.611328125,34.42041015625-26.513916015625,21.957763671875-76.388916015625-21.390380859375-82.686767578125-27.45458984375-3.988647460938-63.67333984375,2.9560546875-92.134521484375,0,.844482421875,7.170166015625,4.724853515625,12.405029296875,5.344482421875,19.9951171875,2.416748046875,29.599243164062,2.3984375,79.80419921875.1298828125,109.462158203125-.659423828125,8.616821289062-3.760498046875,12.235961914062-5.474365234375,19.86572265625h58.75244140625c-.59716796875-3.415649414062-8.01171875-9.603881835938-8.01171875-11.999145507812v-41.330444335938l10.228271484375.484375c5.580078125,18.021362304688,26.75732421875,33.125366210938,21.818359375,52.84521484375h58.75244140625c-7.6123046875-10.659912109375-23.79150390625-45.504638671875-31.933837890625-52.106079101562ZM1352.650034712705,355.692868488386v-38.6640625c16.177734375-.832275390625,33.718017578125-2.012939453125,36.506103515625,17.684692382812,1.37744140625,19.155029296875-21.123046875,32.238037109375-36.506103515625,20.979370117188Z"/>
  <path d="M642.28064994708,437.020505207136h58.752197265625c-8.77099609375-13.004150390625-10.164794921875-27.473388671875-6.846435546875-42.831787109375,3.2646484375-4.675903320312,28.8125-1.800048828125,36.915771484375-3.1396484375,43.717041015625-7.227172851562,63.166259765625-74.031982421875,22.548583984375-95.893188476562-2.264404296875-1.218627929688-20.736328125-7.458374023438-21.90625-7.458374023438h-89.4638671875c.84423828125,7.169677734375,4.724609375,12.404418945312,5.344482421875,19.9951171875,2.416748046875,29.598022460938,2.398681640625,79.805419921875.129638671875,109.462158203125-.659423828125,8.61767578125-3.7607421875,12.236694335938-5.47412109375,19.86572265625ZM693.02137260333,318.362057941511c45.98876953125-19.5791015625,52.338623046875,55.59619140625,0,43.996948242188v-43.996948242188Z"/>
  <path d="M1454.131480025205,437.020505207136h106.822509765625v-42.663696289062c-3.41943359375.5947265625-9.6181640625,7.999389648438-12.017578125,7.999389648438h-44.064453125v-23.998291015625h40.05859375v-29.331298828125h-40.05859375v-23.998291015625h41.393798828125c2.0947265625,0,7.327880859375,7.140502929688,12.017578125,5.332885742188v-42.663696289062h-104.15185546875c.416015625,8.526611328125,4.78857421875,13.379150390625,5.4853515625,22.520874023438,2.206787109375,28.955932617188,2.218994140625,77.909790039062-.140869140625,106.807006835938-.619873046875,7.591552734375-4.500732421875,12.826538085938-5.344482421875,19.9951171875Z"/>
  <path d="M1176.39295463458,437.020505207136h109.4931640625v-42.663696289062c-3.38427734375-.089233398438-11.29541015625,7.999389648438-12.017578125,7.999389648438h-46.73486328125v-23.998291015625h40.058349609375l.0146484375-29.345703125-37.571533203125-1.150390625-2.50146484375-22.83349609375h44.064208984375c2.0947265625,0,7.327880859375,7.140502929688,12.017578125,5.332885742188v-42.663696289062h-106.822509765625c2.08837890625,9.167602539062,6.80322265625,15.36572265625,8.009033203125,25.334228515625,2.597412109375,21.47265625,2.441162109375,77.046142578125.146240234375,98.800659179688-1.0166015625,9.63916015625-4.502197265625,16.579223632812-8.1552734375,25.188110351562Z"/>
  <path d="M2034.57410697833,303.098508136824c-1.097412109375,6.134887695312-15.31884765625,43.293334960938-20.931396484375,43.292358398438-4.225341796875-19.41650390625-23.5595703125-40.06787109375-12.046142578125-58.693359375h-58.75244140625c11.435302734375,25.230712890625,23.89013671875,51.69677734375,37.75830078125,75.63671875,2.929931640625,5.057739257812,9.673828125,6.444091796875,10.35595703125,8.926025390625,3.681640625,13.392211914062-.099365234375,50.764404296875-5.38525390625,64.76025390625h61.423095703125c-10.000732421875-9.772338867188-11.15185546875-50.9228515625-7.548583984375-62.29541015625,1.086669921875-3.430541992188,6.250244140625-3.869873046875,7.61572265625-6.336059570312,14.71142578125-26.569213867188,29.2890625-53.419555664062,42.661865234375-80.691528320312h-58.75244140625c-.020263671875,6.727294921875,4.96630859375,7.768310546875,3.601318359375,15.401000976562Z"/>
</svg>