<?xml version="1.0" encoding="UTF-8"?>
<svg id="_--WorkSpace" data-name="--WorkSpace" xmlns="http://www.w3.org/2000/svg" viewBox="0 0 2737.34683088334 999.999999999996">
  <path d="M1877.99271520542,320.433347004011c-3.97705078125-4.945556640625-19.546875-6.970947265625-25.9580078125-6.084228515625l.01123046875,34.687744140625c15.81884765625,4.182373046875,38.54736328125-12.934814453125,25.94677734375-28.603515625Z"/>
  <path d="M1352.64994176792,317.028805988386v38.6640625c15.38330078125,11.258666992188,37.8837890625-1.824340820312,36.50634765625-20.979370117188-2.7880859375-19.697631835938-20.32861328125-18.516967773438-36.50634765625-17.684692382812Z"/>
  <path d="M1627.71781286167,319.695309894636v82.660888671875c63.853515625,10.088256835938,67.58154296875-93.04150390625,0-82.660888671875Z"/>
  <path d="M866.64310583042,509.022702472761l-16.05859375,95.986206054688h37.3876953125c-5.8408203125-28.444458007812-7.9853515625-58.839477539062-15.8876953125-86.795776367188-1.0263671875-3.630493164062-.34130859375-8.271728515625-5.44140625-9.1904296875Z"/>
  <path d="M855.89164098667,403.828732746199c50.4931640625,12.216430664062,56.240234375-94.991333007812-3.40234375-80.8759765625-27.712890625,6.558715820312-29.8896484375,72.821166992188,3.40234375,80.8759765625Z"/>
  <path d="M693.02103551792,318.362057941511v43.996948242188c52.3388671875,11.599243164062,45.9892578125-63.576049804688,0-43.996948242188Z"/>
  <path d="M324.48343786167,517.014889972761v141.323608398438c61.017578125,8.804443359375,94.59765625-52.458618164062,74.22802734375-104.779174804688-12.29541015625-31.581665039062-44.49072265625-34.688110351562-74.22802734375-36.54443359375Z"/>
  <path d="M597.00492223667,512.779782550886l-5.46484375,2.901977539062v67.995239257812c27.515625,2.17431640625,57.33056640625.4873046875,58.892578125-33.241088867188,1.734375-37.452880859375-23.87353515625-35.750244140625-53.427734375-37.656127929688Z"/>
  <path d="M2544.66898473667,143.652707355574h-73.0322265625c-1.69775390625,0-3.376953125.077392578125-5.04638671875.188720703125H761.14652379917c-1.6689453125-.111572265625-3.34716796875-.188720703125-5.04443359375-.188720703125H192.67826208042c-41.21923828125,0-74.63427734375,33.4150390625-74.63427734375,74.63427734375v563.426025390625c0,41.219482421875,33.4150390625,74.63427734375,74.63427734375,74.63427734375h563.423828125c1.69775390625,0,3.37646484375-.0771484375,5.04638671875-.188720703125h1705.44287109375c1.6689453125.111572265625,3.34765625.188720703125,5.04541015625.188720703125h73.0322265625c41.21875,0,74.6337890625-33.414794921875,74.6337890625-74.63427734375V218.286984699324c0-41.21923828125-33.4150390625-74.63427734375-74.6337890625-74.63427734375ZM1184.40189489292,313.031735675886c-1.20556640625-9.968505859375-5.92041015625-16.166625976562-8.0087890625-25.334228515625h106.822265625v42.663696289062c-4.689453125,1.8076171875-9.9228515625-5.332885742188-12.017578125-5.332885742188h-44.06396484375l2.5009765625,22.83349609375,37.57177734375,1.150390625-.0146484375,29.345703125h-40.05810546875v23.998291015625h46.73486328125c.72216796875,0,8.63330078125-8.088623046875,12.01708984375-7.999389648438v42.663696289062h-109.49267578125c3.65283203125-8.60888671875,7.13818359375-15.548950195312,8.1552734375-25.188110351562,2.294921875-21.754516601562,2.451171875-77.328002929688-.146484375-98.800659179688ZM1005.47709020542,287.697507160261l-5.17626953125,14.34228515625,17.162109375,60.337646484375,40.060546875-82.709228515625,38.71728515625,82.683715820312c3.00537109375-24.339233398438,20.677734375-51.566040039062,10.7177734375-74.654418945312h53.4111328125l-33.3251953125,146.713500976562-41.76318359375,1.026245117188-27.759765625-67.762939453125-33.33837890625,68.025146484375-39.796875,1.039794921875-34.9912109375-149.041748046875h56.08203125ZM847.27591833042,285.725339191511c119.5244140625-16.0283203125,122.28369140625,139.916381835938,36.0390625,153.311279296875-123.306640625,19.151123046875-129.7060546875-140.75048828125-36.0390625-153.311279296875ZM647.62503942417,307.692624347761c-.61962890625-7.590698242188-4.5-12.825439453125-5.3447265625-19.9951171875h89.4638671875c1.169921875,0,19.64208984375,6.23974609375,21.90673828125,7.458374023438,40.61767578125,21.861206054688,21.16845703125,88.666015625-22.548828125,95.893188476562-8.10302734375,1.339599609375-33.65087890625-1.536254882812-36.91552734375,3.1396484375-3.318359375,15.3583984375-1.9248046875,29.82763671875,6.84619140625,42.831787109375h-58.75244140625c1.7138671875-7.629028320312,4.81494140625-11.248046875,5.474609375-19.86572265625,2.2685546875-29.65673828125,2.287109375-79.864135742188-.1298828125-109.462158203125ZM421.48685583042,700.530759113386c-6.2001953125,3.161010742188-34.4931640625,13.803955078125-39.5859375,13.803955078125h-142.87548828125c2.9462890625-11.8662109375,9.44384765625-20.40234375,10.82568359375-33.188232421875,4.10546875-37.9951171875,4.642578125-146.945556640625-.07861328125-184.1943359375-1.39111328125-10.97265625-8.77294921875-19.89111328125-10.7470703125-30.600341796875h137.5341796875c11.81103515625,0,47.54736328125,14.724609375,58.31201171875,21.771728515625,70.99755859375,46.479736328125,61.9775390625,173.985595703125-13.384765625,212.4072265625ZM642.28031286167,714.334714191511l4.16845703125-18.719848632812-40.66162109375-68.831420898438-14.2470703125-.442626953125v67.9951171875c0,3.78515625,11.47998046875,14.195556640625,10.68212890625,19.998779296875h-96.14013671875c3.8486328125-14.208251953125,9.4580078125-23.05419921875,10.796875-38.54931640625,3.544921875-41.023193359375,4.681640625-136.30078125-.11572265625-176.101684570312-1.46728515625-12.173095703125-8.70849609375-21.515991210938-10.68115234375-33.331909179688,48.4833984375,4.76025390625,109.23828125-6.385009765625,156.2275390625,0,71.0625,9.65625,90.02734375,101.787841796875,31.5947265625,138.216796875-9.9501953125,6.203125-23.39599609375,7.603393554688-30.25830078125,16.409912109375l22.67626953125,2.7177734375,57.439453125,90.638427734375h-101.4814453125ZM901.32523473667,714.334714191511c10.53857421875-19.361083984375-.81494140625-38.60205078125-2.6708984375-58.66259765625h-53.4111328125c-1.85546875,20.060546875-13.208984375,39.301513671875-2.67041015625,58.66259765625h-93.4697265625c5.04443359375-10.582763671875,11.2568359375-20.595947265625,14.73388671875-31.952392578125,13.6484375-44.582275390625,27.0068359375-115.220703125,35.177734375-162.197875976562,3.63037109375-20.871215820312,6.27880859375-32.205322265625.8291015625-53.832641601562h132.19287109375l54.74658203125,247.98291015625h-85.4580078125ZM1283.08646520542,714.196286457136l-68.98974609375-.193237304688-52.3623046875-117.024536132812-49.3359375,116.12158203125-62.9501953125,1.419799804688-59.99462890625-248.168090820312h90.79931640625l-10.20556640625,21.90625,27.59375,103.436767578125,66.6875-138.75439453125,64.14013671875,138.677490234375c3.35400390625-2.074340820312,3.57421875-5.254760742188,4.79931640625-8.482666015625,4.69384765625-12.366455078125,24.66845703125-93.059326171875,22.63916015625-101.405395507812-1.25341796875-5.155883789062-8.4580078125-8.971313476562-7.4091796875-15.378051757812h90.79931640625l-56.2109375,247.844482421875ZM1384.69681676792,437.020505207136c4.9384765625-19.719848632812-16.23828125-34.823852539062-21.818359375-52.84521484375l-10.228515625-.484375v41.330444335938c0,2.395263671875,7.41455078125,8.58349609375,8.01171875,11.999145507812h-58.75244140625c1.7138671875-7.629760742188,4.81494140625-11.248901367188,5.47412109375-19.86572265625,2.26904296875-29.657958984375,2.287109375-79.862915039062-.12939453125-109.462158203125-.61962890625-7.590087890625-4.5-12.824951171875-5.3447265625-19.9951171875,28.4609375,2.9560546875,64.68017578125-3.988647460938,92.134765625,0,43.34814453125,6.2978515625,55.810546875,56.1728515625,21.39013671875,82.686767578125-6.00732421875,4.62744140625-13.9599609375,4.16064453125-17.3837890625,10.611328125,5.97412109375-.549438476562,8.80078125.13720703125,13.46484375,3.918823242188,8.14208984375,6.601440429688,24.32177734375,41.446166992188,31.93408203125,52.106079101562h-58.75244140625ZM1459.61673864292,310.218381183699c-.69677734375-9.141723632812-5.0693359375-13.994262695312-5.4853515625-22.520874023438h104.15185546875v42.663696289062c-4.689453125,1.8076171875-9.9228515625-5.332885742188-12.017578125-5.332885742188h-41.3935546875v23.998291015625h40.05859375v29.331298828125h-40.05859375v23.998291015625h44.064453125c2.3994140625,0,8.59814453125-7.404663085938,12.017578125-7.999389648438v42.663696289062h-106.82275390625c.84375-7.168579101562,4.724609375-12.403564453125,5.3447265625-19.9951171875,2.35986328125-28.897216796875,2.34765625-77.85107421875.140625-106.807006835938ZM1532.97171911167,719.608884113386c-24.09716796875-2.017700195312-48.51708984375-17.20361328125-70.79931640625-5.275268554688l7.98779296875-88.0048828125c19.04345703125-1.297973632812,26.205078125,18.165893554688,44.4013671875,26.334716796875,19.79150390625,8.884887695312,51.17626953125,14.674194335938,62.5-9.172241210938,2.84375-20.14794921875-54.05615234375-34.326293945312-70.3212890625-44.34716796875-26.39892578125-16.26416015625-41.1123046875-38.304931640625-39.349609375-70.212158203125,3.24267578125-58.695190429688,71.11865234375-71.683837890625,118.875-67.8544921875,21.4248046875,1.718017578125,39.04931640625,13.2626953125,60.1279296875,2.619873046875l-7.998046875,87.992919921875c-16.728515625,2.8466796875-22.49169921875-13.618408203125-35.94970703125-21.441162109375-17.26123046875-10.03369140625-54.19921875-16.13037109375-62.263671875,7.172485351562-.1669921875,6.391479492188,3.66943359375,8.872680664062,8.1845703125,12.171264648438,33.39306640625,24.39501953125,98.11181640625,20.0224609375,107.52099609375,79.275024414062,11.962890625,75.333129882812-62.642578125,95.787963867188-122.916015625,90.741088867188ZM1576.97709020542,437.020505207136c5.8037109375-9.311767578125,7.22265625-17.074584960938,8.1279296875-27.88232421875,2.025390625-24.190185546875,2.58349609375-75.176513671875-.1171875-98.774658203125-.95849609375-8.373901367188-4.09228515625-15.42822265625-8.0107421875-22.666015625h81.4521484375c88.87841796875,0,81.794921875,149.322998046875,5.34130859375,149.322998046875h-86.79345703125ZM1884.09183629917,537.013669269636l-3.9853515625,3.929077148438c-3.8369140625-.651611328125-15.08203125-10.595336914062-16.0439453125-10.595336914062h-49.4052734375v166.655029296875c0,1.017578125,10.78662109375,12.886474609375,10.68212890625,17.332275390625h-98.810546875c-2.68017578125-7.340576171875,10.68212890625-21.9716796875,10.68212890625-25.331665039062v-154.655883789062l-4.005859375-3.999755859375h-45.3994140625c-3.1318359375,0-13.7998046875,12.317749023438-20.029296875,10.665893554688v-67.995239257812c0-.869384765625-3.63916015625-3.83740234375-2.67041015625-6.666259765625h218.98583984375v70.661865234375ZM1801.30472692417,437.020505207136c.84423828125-7.169799804688,4.724609375-12.404541015625,5.34423828125-19.9951171875,2.35986328125-28.899169921875,2.34765625-77.849365234375.14111328125-106.807006835938-.69677734375-9.140502929688-5.0693359375-13.993530273438-5.4853515625-22.520874023438,27.09326171875,2.627685546875,60.52490234375-3.550048828125,86.79296875,0,40.24951171875,5.439575195312,54,48.422119140625,16.34912109375,66.471801757812l-1.66357421875,5.49267578125c51.31787109375,4.9169921875,35.84521484375,77.358520507812-6.673828125,77.358520507812h-94.8046875ZM2081.71341833042,714.334714191511h-178.927734375c2.01220703125-12.45703125,9.35107421875-20.063720703125,10.8173828125-33.1962890625,4.22509765625-37.84033203125,4.3896484375-143.915283203125-.1357421875-181.454711914062-1.4677734375-12.1748046875-8.70947265625-21.517456054688-10.681640625-33.331909179688h176.25732421875v71.994995117188c-6.06494140625,1.306762695312-19.6484375-10.665893554688-22.69970703125-10.665893554688h-68.099609375v37.330810546875h64.09375v53.32958984375h-64.09375v37.330810546875h76.111328125c2.14599609375,0,13.076171875-10.148193359375,17.3583984375-10.666015625v69.32861328125ZM2047.06351598667,368.389035480574c-1.36572265625,2.466186523438-6.529296875,2.905517578125-7.6162109375,6.336059570312-3.60302734375,11.37255859375-2.4521484375,52.523071289062,7.548828125,62.29541015625h-61.4228515625c5.28564453125-13.995849609375,9.06689453125-51.368041992188,5.38525390625-64.76025390625-.68212890625-2.48193359375-7.42626953125-3.868286132812-10.35595703125-8.926025390625-13.8681640625-23.93994140625-26.3232421875-50.406005859375-37.75830078125-75.63671875h58.75244140625c-11.513671875,18.62548828125,7.82080078125,39.27685546875,12.0458984375,58.693359375,5.61279296875.0009765625,19.833984375-37.157470703125,20.931640625-43.292358398438,1.36474609375-7.632690429688-3.6220703125-8.673706054688-3.6015625-15.401000976562h58.75244140625c-13.37255859375,27.27197265625-27.9501953125,54.122314453125-42.66162109375,80.691528320312ZM2290.01712926792,714.334714191511h-178.92724609375c3.21728515625-14.748779296875,9.40087890625-22.325073242188,10.7978515625-38.54833984375,3.5693359375-41.446533203125,4.6259765625-135.770141601562-.11669921875-176.102661132812-1.53125-13.021240234375-9.49658203125-20.914672851562-10.68115234375-33.331909179688h176.2568359375v71.994995117188c-6.06494140625,1.306762695312-19.64794921875-10.665893554688-22.69970703125-10.665893554688h-70.77001953125v37.330810546875h66.76416015625v53.32958984375h-66.76416015625l4.384765625,36.952514648438c30.3076171875-2.32568359375,66.333984375,8.916748046875,91.75537109375-10.287719726562v69.32861328125ZM2319.39359411167,714.334714191511c.52490234375-12.004272460938,9.2431640625-21.484741210938,10.74609375-33.267333984375,4.58935546875-35.97802734375,4.07080078125-142.1513671875.0791015625-178.860717773438-1.42333984375-13.086303710938-7.92529296875-24.385375976562-13.49609375-35.854858398438h101.4814453125c3.11376953125,2.684326171875-10.68212890625,16.191650390625-10.68212890625,17.332153320312v169.321655273438h70.77001953125c1.17431640625,0,14.615234375-13.76904296875,17.34326171875-10.6513671875l2.68603515625,71.98046875h-178.927734375Z"/>
  <path d="M1852.04496129917,370.358395832136v39.997314453125c49.25,8.56591796875,46.6416015625-46.062744140625,0-39.997314453125Z"/>
</svg>