<?xml version="1.0" encoding="UTF-8"?>
<svg id="_--WorkSpace" data-name="--WorkSpace" xmlns="http://www.w3.org/2000/svg" viewBox="0 0 1000 1000">
  <path d="M781.711865278465,143.65276708433H218.288037153465c-41.21923828125,0-74.634033203125,33.4150390625-74.634033203125,74.63427734375v563.426025390625c0,41.219482421875,33.414794921875,74.63427734375,74.634033203125,74.63427734375h563.423828125c41.21923828125,0,74.634033203125-33.414794921875,74.634033203125-74.63427734375V218.28704442808c0-41.21923828125-33.414794921875-74.63427734375-74.634033203125-74.63427734375ZM606.249951215965,517.99993505308c-26.3359375,23.5-60.171875,35.25-101.5,35.25h-56.5v153h-94v-412.5h150.5c42,0,76,10.8359375,102,32.5,26,21.671875,39,53.171875,39,94.5,0,41.3359375-13.171875,73.75-39.5,97.25Z"/>
  <path d="M526.499951215965,381.49993505308c-13.5-8.5-30.75-12.75-51.75-12.75h-26.5v109.5h26.5c21,0,38.25-4.25,51.75-12.75s20.25-22.4140625,20.25-41.75c0-19.6640625-6.75-33.75-20.25-42.25Z"/>
</svg>