<?xml version="1.0" encoding="UTF-8"?>
<svg id="_--WorkSpace" data-name="--WorkSpace" xmlns="http://www.w3.org/2000/svg" viewBox="0 0 1000 1000">
  <path d="M526.273999067527,381.24993505308c-4.671875-3.6640625-10.8359375-6.5-18.5-8.5-7.671875-2-14.5-3.1640625-20.5-3.5-6-.328125-13.3359375-.5-22-.5h-11v108h11c8.6640625,0,16-.1640625,22-.5,6-.328125,12.828125-1.5,20.5-3.5,7.6640625-2,13.828125-4.828125,18.5-8.5,4.6640625-3.6640625,8.6640625-9,12-16,3.328125-7,5-15.5,5-25.5s-1.671875-18.5-5-25.5c-3.3359375-7-7.3359375-12.328125-12-16Z"/>
  <path d="M781.711865278465,143.65276708433H218.288037153465c-41.21923828125,0-74.634033203125,33.4150390625-74.634033203125,74.63427734375v563.426025390625c0,41.219482421875,33.414794921875,74.63427734375,74.634033203125,74.63427734375h563.423828125c41.21923828125,0,74.634033203125-33.414794921875,74.634033203125-74.63427734375V218.28704442808c0-41.21923828125-33.414794921875-74.63427734375-74.634033203125-74.63427734375ZM580.273999067527,706.24993505308l-126-163v163h-94v-412.5h147.5c39.6640625,0,72,10.5859375,97,31.75,25,21.171875,37.5,51.421875,37.5,90.75,0,30.3359375-7.5859375,55.75-22.75,76.25-15.171875,20.5-35.75,34.921875-61.75,43.25l142,170.5h-119.5Z"/>
</svg>