<?xml version="1.0" encoding="UTF-8"?>
<svg id="_--WorkSpace" data-name="--WorkSpace" xmlns="http://www.w3.org/2000/svg" viewBox="0 0 999.999999999992 999.999999999998">
  <circle cx="499.999999999988" cy="320.663514020593" r="177.831011696382"/>
  <path d="M796.626150185523,731.0729175217c.585083007812-46.329406738281-10.93487548828-96.556030273434-27.29962158203-134.070983886715-5.654663085938-12.963012695316-13.672607421875-30.926086425785-27.554626464845-48.847778320316-5.99102783203-8.37451171875-13.2158203125-16.876159667969-22.100585937499-25.0205078125-3.728088378906-3.417419433594-15.808532714844-14.101989746094-30.515991210938-21.753234863281-29.700378417969-15.450927734375-60.922485351562-13.709655761719-75.381408691406-11.981323242188.634521484375,3.687805175781,1.178039550781,9.577392578125-.735717773438,15.768127441406-2.940063476562,9.510498046875-10.9189453125,17.267456054688-22.263000488281,23.334594726562-26.508483886719,11.627319335938-64.977111816406,17.267700195312-101.452514648438,16.401000976562-26.957885742188-1.203552246094-53.5302734375-5.858032226562-74.198913574219-13.759582519531-14.463195800781-6.4208984375-24.735778808594-15.120239257812-28.161926269531-26.203063964844-1.913818359375-6.190734863281-1.370239257812-12.080322265625-.735717773438-15.768127441406-11.518493652344-1.141662597656-45.326110839844-3.317504882812-75.381469726562,12.435546875-15.419616699219,8.081970214844-29.178039550781,20.526733398438-30.515930175781,21.753112792969-6.717712402344,6.157897949219-12.48291015625,12.5205078125-17.488830566406,18.877746582031-16.772827148438,19.748168945312-25.912658691405,40.199951171875-32.166442871092,54.536437988285-16.381164550779,37.552917480469-27.90728759766,87.842956542965-27.29705810547,134.211303710934-.53698730469,40.445739746094,8.00085449219,77.933471679688,31.363403320306,101.479797363281,7.937438964849,7.999816894531,20.84448242188,17.675109863281,41.638366699224,22.439025878906h444.536743164062c.302062988281-.070556640625.617065429688-.15234375.924011230468-.226989746094h1.78289794922c20.793884277343-4.763916015625,33.70098876953-14.439270019531,41.638427734375-22.439086914062,23.302124023438-23.4853515625,31.854614257812-60.840454101562,31.365905761718-101.166015625Z"/>
</svg>