<?xml version="1.0" encoding="UTF-8"?>
<svg id="_--WorkSpace" data-name="--WorkSpace" xmlns="http://www.w3.org/2000/svg" viewBox="0 0 3079.562403061889 1000.000000000001">
  <path d="M1817.553923548028,376.750053994971c-34,0-60.25,12.0859375-78.75,36.25-18.5,24.171875-27.75,53.0859375-27.75,86.75,0,21.671875,3.328125,41.421875,10,59.25,6.6640625,17.8359375,18.328125,32.921875,35,45.25,16.6640625,12.3359375,37.1640625,18.5,61.5,18.5,35,0,61.41455078125-12,79.25048828125-36,17.828125-24,26.75-53,26.75-87,0-33.6640625-9.0859375-62.578125-27.25-86.75-18.171875-24.1640625-44.42236328125-36.25-78.75048828125-36.25Z"/>
  <path d="M1436.059782923028,381.250053994971c-4.671875-3.6640625-10.8359375-6.5-18.5-8.5-7.671875-2-14.5-3.1640625-20.5-3.5-6-.328125-13.3359375-.5-22-.5h-11v108h11c8.6640625,0,16-.1640625,22-.5,6-.328125,12.828125-1.5,20.5-3.5,7.6640625-2,13.828125-4.828125,18.5-8.5,4.6640625-3.6640625,8.6640625-9,12-16,3.328125-7,5-15.5,5-25.5s-1.671875-18.5-5-25.5c-3.3359375-7-7.3359375-12.328125-12-16Z"/>
  <path d="M2902.446074426935,143.652641885596H177.11624044256c-41.21923828125,0-74.634033203125,33.4150390625-74.634033203125,74.63427734375v563.426025390625c0,41.219482421875,33.414794921875,74.63427734375,74.634033203125,74.63427734375h2725.329833984375c41.21923828125,0,74.634033203125-33.414794921875,74.634033203125-74.63427734375V218.286919229346c0-41.21923828125-33.414794921875-74.63427734375-74.634033203125-74.63427734375ZM476.062285364435,428.750053994971l-179,70,179,69v71l-273.5-111v-59l273.5-111v71ZM939.308867395685,642.750053994971c-8.5,17.671875-20.171875,31.5-35,41.5-14.8359375,10-31.25,17.421875-49.25,22.25s-37.5,7.25-58.5,7.25c-18,0-35.671875-1.8359375-53-5.5-17.3359375-3.6640625-31.8359375-8.25-43.5-13.75-11.671875-5.5-22.171875-10.9140625-31.5-16.25-9.3359375-5.328125-16.171875-9.828125-20.5-13.5l-6.5-5.5,47-79c4,3.3359375,9.5,7.5859375,16.5,12.75,7,5.171875,19.4140625,12.0859375,37.25,20.75,17.828125,8.671875,33.578125,13,47.25,13,39.6640625,0,59.5-13.5,59.5-40.5,0-5.6640625-1.421875-10.9140625-4.25-15.75-2.8359375-4.828125-7.8359375-9.6640625-15-14.5-7.171875-4.828125-13.5-8.6640625-19-11.5-5.5-2.828125-14.5-7.1640625-27-13-12.5-5.828125-21.75-10.25-27.75-13.25-25-12.328125-44.3359375-27.75-58-46.25-13.671875-18.5-20.5-38.4140625-20.5-59.75,0-37,13.6640625-67.25,41-90.75,27.328125-23.5,58.5-35.25,93.5-35.25,22.328125,0,44.1640625,3.25,65.5,9.75,21.328125,6.5,37.1640625,12.921875,47.5,19.25l15,10-38,75c-3-2-7.171875-4.578125-12.5-7.75-5.3359375-3.1640625-15.3359375-7.4140625-30-12.75-14.671875-5.328125-28.3359375-8-41-8-15.671875,0-27.75,3.3359375-36.25,10-8.5,6.671875-12.75,15.671875-12.75,27,0,5.671875,2,10.921875,6,15.75,4,4.8359375,10.828125,10,20.5,15.5,9.6640625,5.5,18.1640625,9.921875,25.5,13.25,7.328125,3.3359375,18.6640625,8.3359375,34,15,26.6640625,11.3359375,49.4140625,26.75,68.25,46.25,18.828125,19.5,28.25,41.5859375,28.25,66.25,0,23.671875-4.25,44.3359375-12.75,62ZM1236.063261926935,376.250053994971h-98v330h-94v-330h-98v-82.5h290v82.5ZM1490.059782923028,706.250053994971l-126-163v163h-93.999938964844v-412.5h147.499938964844c39.6640625,0,72,10.5859375,97,31.75,25,21.171875,37.5,51.421875,37.5,90.75,0,30.3359375-7.5859375,55.75-22.75,76.25-15.171875,20.5-35.75,34.921875-61.75,43.25l142,170.5h-119.5ZM1965.554411829278,652.000053994971c-39.671875,41.171875-89,61.75-148.00048828125,61.75-60.3359375,0-110.0859375-20.4140625-149.25-61.25-39.171875-40.828125-58.75-91.75-58.75-152.75,0-59.6640625,20.328125-110.1640625,61-151.5,40.6640625-41.328125,89.6640625-62,147-62,57.66455078125,0,106.66455078125,20.5859375,147.00048828125,61.75,40.328125,41.171875,60.5,91.75,60.5,151.75,0,60.3359375-19.8359375,111.0859375-59.5,152.25ZM2419.553496301935,706.250053994971h-94.000061035156l-164-256h-1v256h-94v-412.5h94l164,256h1v-256h94.000061035156v412.5ZM2852.547636926935,564.750053994971c-10.671875,49-34,86.0859375-70,111.25-36,25.171875-76.171875,37.75-120.5,37.75-55.671875,0-103.0859375-20.828125-142.25-62.5-39.171875-41.6640625-58.75-92-58.75-151,0-60,19.1640625-110.6640625,57.5-152,38.328125-41.328125,86.1640625-62,143.5-62,67,0,120,23.5,159,70.5l-61.5,67.5c-22-35.328125-52.671875-53-92-53-29,0-53.75,12.5859375-74.25,37.75-20.5,25.171875-30.75,55.5859375-30.75,91.25,0,35,10.25,64.921875,30.75,89.75,20.5,24.8359375,45.25,37.25,74.25,37.25,24,0,44.9140625-7.25,62.75-21.75,17.828125-14.5,26.75-33.75,26.75-57.75h-95v-72.5h190.5v89.5Z"/>
</svg>