<?xml version="1.0" encoding="UTF-8"?>
<svg id="_--WorkSpace" data-name="--WorkSpace" xmlns="http://www.w3.org/2000/svg" viewBox="0 0 1000 999.999999999998">
  <path d="M268.141421283191,362.036599888648c15.78949071638.174964043639,31.579154066239.349928087267,47.368644782619.52489213091,54.97694802003,54.976948020028,109.95398235681,109.953982356807,164.93093037685,164.930930376848,13.28103976812-2.588639205052,26.56233848649-5.177364726849,39.84346457136-7.765917615161,2.57551905969-13.268092256261,5.15103811939-26.53618451253,7.72672981258-39.804276768791-54.976948020029-54.97694802003-109.953982356809-109.953982356807-164.93093037684-164.930930376844.12326031293-16.051462039721.24652062586-32.102924079451.36978093879-48.15438611918-41.578172210709-41.32716311406-83.156258104659-82.654239911381-124.73443031537-123.98140302544-1.53799177578,12.265609571121-11.37007333396,68.29475872185-14.5754456874,82.227230970149-26.6757586904,4.4918371321-53.35143106406,8.983587947461-80.02718975447,13.475425079561,41.34278644505,41.159449677069,82.68565920684,82.31898567088,124.02844565188,123.478435347948Z"/>
  <g>
    <path d="M205.09067650862,299.265365281119c19.23889160157,19.153686523441,38.47778320313,38.30725097657,57.716796875,57.4609375,23.57348632813-38.94262695312,56.47241210938-71.60107421875,95.59301757813-94.90856933593-19.30444335938-19.187744140629-38.60888671875-38.37561035157-57.9130859375-57.5634765625-37.49243164063,25.342407226561-69.90319824219,57.629638671871-95.39672851563,95.01110839843Z"/>
    <path d="M500.000100336751,143.285140671749c-62.49096679688,0-121.22534179688,16.074340820311-172.30346679688,44.305541992189l57.60729980469,57.25964355468,1.990234375,1.97814941407c34.43395996094-15.352294921879,72.56994628906-23.89855957032,112.70593261719-23.89855957032,153.021484375,0,277.07000732422,124.04846191407,277.07000732422,277.070068359375s-124.04852294922,277.070068359371-277.07000732422,277.070068359371c-153.02172851563,0-277.07006835938-124.048461914059-277.07006835938-277.070068359371,0-40.87109375,8.85571289063-79.671875,24.74304199219-114.597534179686l-1.40307617187-1.396850585941-41.21984863282-41.036987304678-16.70849609375-16.634521484379c-28.69995117187,51.394287109377-45.05651855468,110.619873046875-45.05651855468,173.665893554684,0,197.008178710941,159.706665039061,356.71484375,356.714965820311,356.71484375,197.008117675779,0,356.714782714839-159.706665039059,356.714782714839-356.71484375s-159.70666503906-356.714843749995-356.714782714839-356.714843749995Z"/>
  </g>
  <g>
    <path d="M321.509377680501,368.560775437367c18.890625,18.89074707032,37.78137207031,37.781372070318,56.67211914062,56.671997070318,11.900390625-19.347900390629,28.27490234375-35.64892578125,47.69018554688-47.450195312498-18.90356445313-18.903564453127-37.807250976561-37.807250976568-56.71081542969-56.710815429688-18.18835449219,13.322631835939-34.26940917969,29.347045898439-47.65148925781,47.489013671868Z"/>
    <path d="M500.000100336751,278.337264695188c-37.55004882813,0-72.911254882811,9.349853515621-103.90478515625,25.82861328125l43.88232421875,43.882080078121,15.96337890625,15.963378906248c13.87902832031-4.493652343748,28.68334960937-6.931640624998,44.05908203125-6.931640624998,78.9326171875,0,142.92016601562,63.987548828125,142.92016601562,142.920288085934s-63.98754882812,142.920288085941-142.92016601562,142.920288085941c-78.932739257811,0-142.92028808594-63.987548828129-142.92028808594-142.920288085941,0-15.665161132809,2.52868652344-30.737670898438,7.18591308594-44.842163085938l-15.69897460938-15.698974609371-44.04260253906-44.042724609379c-16.70373535156,31.155029296879-26.18688964844,66.760131835938-26.18688964844,104.583862304688,0,122.421020507812,99.24169921875,221.662719726562,221.66284179688,221.662719726562,122.4208984375,0,221.66265869141-99.24169921875,221.66265869141-221.662719726562s-99.24176025391-221.662719726555-221.66265869141-221.662719726555Z"/>
  </g>
</svg>