<?xml version="1.0" encoding="UTF-8"?>
<svg id="_--WorkSpace" data-name="--WorkSpace" xmlns="http://www.w3.org/2000/svg" viewBox="0 0 1904.87708745034 1000">
  <path d="M1717.4219159765,143.65280566515s-1149.1533203125.18896484375-1414.4755859375.18896484375c-31.6875,59.40869140625-158.4375,297.04345703125-190.125,356.45190429687,31.6875,59.31079101563,158.4375,296.55395507813,190.125,355.86474609375l1414.4755859375.18872070313c41.21923828125,0,74.6337890625-33.41479492188,74.6337890625-74.63427734375V218.2870830089c0-41.21923828125-33.41455078125-74.63427734375-74.6337890625-74.63427734375ZM1767.055705039,781.7128642589c0,27.36840820312-22.265625,49.63427734375-49.63037109375,49.63427734375l-1399.490234375-.18676757813-176.7744140625-330.87622070312,12.5869140625-23.5986328125,164.1982421875-307.84375c287.955078125-.0068359375,1387.9228515625-.18701171875,1399.4765625-.18896484375,27.3662109375.0029296875,49.63330078125,22.267578125,49.63330078125,49.63427734375v563.42578125Z"/>
  <rect x="621.946142539" y="648.360033007702" width="206.964840519013" height="57.889940626197"/>
  <polygon points="621.946142539 522.743747882952 828.910983058013 606.740064280684 828.910983058013 553.012816048056 693.456989959277 500.798325702817 828.910983058013 447.827456413883 828.910983058013 394.100208181257 621.946142539 478.096524578988 621.946142539 522.743747882952"/>
  <polygon points="894.4178222265 369.7499736339 894.4178222265 462.7499736339 962.4178222265 418.7499736339 962.4178222265 706.2499736339 1056.4178222265 706.2499736339 1056.4178222265 293.7499736339 1011.9178222265 293.7499736339 894.4178222265 369.7499736339"/>
  <polygon points="1100.914892539 369.7499736339 1100.914892539 462.7499736339 1168.914892539 418.7499736339 1168.914892539 706.2499736339 1262.914892539 706.2499736339 1262.914892539 293.7499736339 1218.414892539 293.7499736339 1100.914892539 369.7499736339"/>
</svg>