<?xml version="1.0" encoding="UTF-8"?>
<svg id="_--WorkSpace" data-name="--WorkSpace" xmlns="http://www.w3.org/2000/svg" viewBox="0 0 1904.87708745035 1000">
  <path d="M1717.421942162675,143.65276708433s-1149.1533203125.18896484375-1414.4755859375.18896484375L112.821356225175,500.29388036558l190.125,355.86474609375,1414.4755859375.18872070312c41.21923828125,0,74.6337890625-33.41479492187,74.6337890625-74.63427734375V218.28704442808c0-41.21923828125-33.41455078125-74.63427734375-74.6337890625-74.63427734375ZM847.137949975175,706.24993505308h-210.123654089133v-58.773048059801h210.123654089133v58.773048059801ZM847.137949975175,443.883669651943l-137.521367974845,53.779340429786,137.521367974845,53.010975870895v54.547704988679l-210.123654089133-85.278756662843v-45.328212952354l210.123654089133-85.278756662843v54.547704988679ZM1083.717653100175,706.24993505308h-94v-287.5l-68,44v-93l117.5-76h44.5v412.5ZM1290.214723412675,706.24993505308h-94v-287.5l-68,44v-93l117.5-76h44.5v412.5Z"/>
</svg>