<?xml version="1.0" encoding="UTF-8"?>
<svg id="_--WorkSpace" data-name="--WorkSpace" xmlns="http://www.w3.org/2000/svg" viewBox="0 0 1904.87708745034 1000">
  <path d="M1717.4223844334,143.65280566515H187.4546109959c-41.21923828125,0-74.6337890625,33.4150390625-74.6337890625,74.63427734375v563.426025390625c0,41.219482421875,33.41455078125,74.63427734375,74.6337890625,74.63427734375h1529.9677734375c41.21923828125,0,74.634033203125-33.414794921875,74.634033203125-74.63427734375V218.2870830089c0-41.21923828125-33.414794921875-74.63427734375-74.634033203125-74.63427734375ZM1767.056417636525,781.713108399525c0,27.368408203125-22.265869140625,49.63427734375-49.634033203125,49.63427734375H187.4546109959c-27.3681640625,0-49.6337890625-22.265869140625-49.6337890625-49.63427734375V218.2870830089c0-27.36865234375,22.265625-49.63427734375,49.6337890625-49.63427734375h1529.9677734375c27.3681640625,0,49.634033203125,22.265625,49.634033203125,49.63427734375v563.426025390625Z"/>
  <polygon points="289.69728677715 369.7499736339 289.69728677715 462.7499736339 357.69728677715 418.7499736339 357.69728677715 706.2499736339 451.69728677715 706.2499736339 451.69728677715 293.7499736339 407.19728677715 293.7499736339 289.69728677715 369.7499736339"/>
  <path d="M692.69435708965,613.2499736339c10-7,22.1640625-16.9140625,36.5-29.75,14.328125-12.828125,28.578125-27,42.75-42.5,14.1640625-15.5,26.25-33.1640625,36.25-53,10-19.828125,15-38.75,15-56.75,0-12.328125-.921875-24.1640625-2.75-35.5-1.8359375-11.328125-6.171875-23.9140625-13-37.75-6.8359375-13.828125-15.75-25.828125-26.75-36-11-10.1640625-26.5859375-18.6640625-46.75-25.5-20.171875-6.828125-43.75-10.25-70.75-10.25-21,0-40.5859375,4.3359375-58.75,13-18.171875,8.671875-32.5,18.25-43,28.75s-20.0859375,22.671875-28.75,36.5c-8.671875,13.8359375-14.171875,23.421875-16.5,28.75-2.3359375,5.3359375-4,9.671875-5,13l78.5,38,8.5-19.5c5.6640625-13,14.578125-26.078125,26.75-39.25,12.1640625-13.1640625,24.9140625-19.75,38.25-19.75,12.6640625,0,23.328125,2.5859375,32,7.75,8.6640625,5.171875,14.6640625,11.8359375,18,20,3.328125,8.171875,5.578125,15.0859375,6.75,20.75,1.1640625,5.671875,1.75,11.3359375,1.75,17,0,14.3359375-7.671875,33-23,56-15.3359375,23-32.3359375,44.5859375-51,64.75-18.671875,20.171875-40.171875,41.75-64.5,64.75-24.3359375,23-41.3359375,38.5859375-51,46.75-9.671875,8.171875-17.3359375,14.5859375-23,19.25v23.5h321.5v-82.5h-153l15-10.5Z"/>
  <rect x="888.18947427715" y="523.2499736339" width="161" height="76.5"/>
  <polygon points="1093.68263833965 369.7499736339 1093.68263833965 462.7499736339 1161.68263833965 418.7499736339 1161.68263833965 706.2499736339 1255.68263833965 706.2499736339 1255.68263833965 293.7499736339 1211.18263833965 293.7499736339 1093.68263833965 369.7499736339"/>
  <path d="M1570.42970865215,464.9999736339c-13.171875-11.5-27.25-20.328125-42.25-26.5-15-6.1640625-29.8359375-9.25-44.5-9.25-12.671875,0-22.5,2-29.5,6l121.5-141.5h-116l-97,115.5c-24.671875,33.3359375-41.671875,60.75-51,82.25-9.3359375,21.5-14,48.921875-14,82.25,0,39.3359375,15.828125,72.5,47.5,99.5,31.6640625,27,70.6640625,40.5,117,40.5,19.328125,0,37.828125-2.8359375,55.5-8.5,17.6640625-5.6640625,33.9140625-13.9140625,48.75-24.75,14.828125-10.828125,26.6640625-25.5,35.5-44,8.828125-18.5,13.25-39.4140625,13.25-62.75,0-23-4.171875-44-12.5-63-8.3359375-19-19.0859375-34.25-32.25-45.75ZM1503.17970865215,618.4999736339c-12,11.8359375-27.171875,17.75-45.5,17.75-18.3359375,0-33.3359375-5.9140625-45-17.75-11.671875-11.828125-17.5-26.75-17.5-44.75,0-18.328125,6.078125-33.578125,18.25-45.75,12.1640625-12.1640625,26.9140625-18.25,44.25-18.25,18,0,33.078125,6.0859375,45.25,18.25,12.1640625,12.171875,18.25,27.421875,18.25,45.75,0,18-6,32.921875-18,44.75Z"/>
</svg>