<?xml version="1.0" encoding="UTF-8"?>
<svg id="_--WorkSpace" data-name="--WorkSpace" xmlns="http://www.w3.org/2000/svg" viewBox="0 0 1904.877087450351 1000">
  <path d="M1601.93115367155,143.8417705089l-1414.475830078125-.18896484375c-41.21923828125,0-74.634033203125,33.4150390625-74.634033203125,74.63427734375v563.42578125c0,41.219482421875,33.414794921875,74.63427734375,74.634033203125,74.63427734375,0,0,1149.153564453125-.188720703125,1414.475830078125-.188720703125,63.374633789062-118.8173828125,126.749633789062-237.634765625,190.124633789062-356.4521484375-63.375-118.621337890625-126.75-237.242919921875-190.124633789062-355.864501953125ZM1586.9316419528,831.15866504015c-287.990966796875.00634765625-1388.19580078125.1865234375-1399.476318359375.1884765625-27.3681640625,0-49.634033203125-22.265869140625-49.634033203125-49.63427734375V218.2870830089c0-27.36865234375,22.265869140625-49.63427734375,49.634033203125-49.63427734375l1399.487060546875.18701171875,176.7744140625,330.876220703125-176.78515625,331.442626953125Z"/>
  <polygon points="541.19287242155 369.7499736339 541.19287242155 462.7499736339 609.19287242155 418.7499736339 609.19287242155 706.2499736339 703.19287242155 706.2499736339 703.19287242155 293.7499736339 658.69287242155 293.7499736339 541.19287242155 369.7499736339"/>
  <polygon points="773.18994273405 376.2499736339 950.68994273405 376.2499736339 760.68994273405 706.2499736339 871.68994273405 706.2499736339 1089.68994273405 321.2499736339 1089.68994273405 293.7499736339 773.18994273405 293.7499736339 773.18994273405 376.2499736339"/>
  <polygon points="1273.68408335905 370.7499736339 1197.18408335905 370.7499736339 1197.18408335905 460.7499736339 1107.18408335905 460.7499736339 1107.18408335905 537.2499736339 1197.18408335905 537.2499736339 1197.18408335905 627.2499736339 1273.68408335905 627.2499736339 1273.68408335905 537.2499736339 1363.68408335905 537.2499736339 1363.68408335905 460.7499736339 1273.68408335905 460.7499736339 1273.68408335905 370.7499736339"/>
</svg>