<?xml version="1.0" encoding="UTF-8"?>
<svg id="_--WorkSpace" data-name="--WorkSpace" xmlns="http://www.w3.org/2000/svg" viewBox="0 0 1904.87708745035 1000">
  <path d="M1717.422468646915,143.65276708433H187.45445106879c-41.21923828125,0-74.6337890625,33.4150390625-74.6337890625,74.63427734375v563.426025390625c0,41.219482421875,33.41455078125,74.63427734375,74.6337890625,74.63427734375h1529.968017578125c41.21923828125,0,74.634033203125-33.414794921875,74.634033203125-74.63427734375V218.28704442808c0-41.21923828125-33.414794921875-74.63427734375-74.634033203125-74.63427734375ZM451.69712685004,706.24993505308h-94v-287.5l-68,44v-93l117.5-76h44.5v412.5ZM830.69419716254,706.24993505308h-321.5v-23.5c5.6640625-4.6640625,13.328125-11.078125,23-19.25,9.6640625-8.1640625,26.6640625-23.75,51-46.75,24.328125-23,45.828125-44.578125,64.5-64.75,18.6640625-20.1640625,35.6640625-41.75,51-64.75,15.328125-23,23-41.6640625,23-56,0-5.6640625-.5859375-11.328125-1.75-17-1.171875-5.6640625-3.421875-12.578125-6.75-20.75-3.3359375-8.1640625-9.3359375-14.828125-18-20-8.671875-5.1640625-19.3359375-7.75-32-7.75-13.3359375,0-26.0859375,6.5859375-38.25,19.75-12.171875,13.171875-21.0859375,26.25-26.75,39.25l-8.5,19.5-78.5-38c1-3.328125,2.6640625-7.6640625,5-13,2.328125-5.328125,7.828125-14.9140625,16.5-28.75,8.6640625-13.828125,18.25-26,28.75-36.5s24.828125-20.078125,43-28.75c18.1640625-8.6640625,37.75-13,58.75-13,27,0,50.578125,3.421875,70.75,10.25,20.1640625,6.8359375,35.75,15.3359375,46.75,25.5,11,10.171875,19.9140625,22.171875,26.75,36,6.828125,13.8359375,11.1640625,26.421875,13,37.75,1.828125,11.3359375,2.75,23.171875,2.75,35.5,0,18-5,36.921875-15,56.75-10,19.8359375-22.0859375,37.5-36.25,53-14.171875,15.5-28.421875,29.671875-42.75,42.5-14.3359375,12.8359375-26.5,22.75-36.5,29.75l-15,10.5h153v82.5ZM1049.18931435004,599.74993505308h-161v-76.5h161v76.5ZM1255.68247841254,706.24993505308h-94v-287.5l-68,44v-93l117.5-76h44.5v412.5ZM1601.929792865665,636.49993505308c-8.8359375,18.5-20.671875,33.171875-35.5,44-14.8359375,10.8359375-31.0859375,19.0859375-48.75,24.75-17.671875,5.6640625-36.171875,8.5-55.5,8.5-46.3359375,0-85.3359375-13.5-117-40.5-31.672119140625-27-47.500244140625-60.1640625-47.500244140625-99.5,0-33.328125,4.6640625-60.75,14-82.25,9.328125-21.5,26.328125-48.9140625,51.000244140625-82.25l97-115.5h116l-121.5,141.5c7-4,16.828125-6,29.5-6,14.6640625,0,29.5,3.0859375,44.5,9.25,15,6.171875,29.078125,15,42.25,26.5,13.1640625,11.5,23.9140625,26.75,32.25,45.75,8.328125,19,12.5,40,12.5,63,0,23.3359375-4.421875,44.25-13.25,62.75Z"/>
  <path d="M1457.679792865665,509.74993505308c-17.3359375,0-32.0859375,6.0859375-44.25,18.25-12.171875,12.171875-18.25,27.421875-18.25,45.75,0,18,5.828125,32.921875,17.5,44.75,11.6640625,11.8359375,26.6640625,17.75,45,17.75,18.328125,0,33.5-5.9140625,45.5-17.75,12-11.828125,18-26.75,18-44.75,0-18.328125-6.0859375-33.578125-18.25-45.75-12.171875-12.1640625-27.25-18.25-45.25-18.25Z"/>
</svg>