<?xml version="1.0" encoding="UTF-8"?>
<svg id="_--WorkSpace" data-name="--WorkSpace" xmlns="http://www.w3.org/2000/svg" viewBox="0 0 1904.877087450341 1000">
  <path d="M1601.93099374443,143.84173192808l-1414.4755859375-.18896484375c-41.21923828125,0-74.634033203125,33.4150390625-74.634033203125,74.63427734375v563.426025390625c0,41.219482421875,33.414794921875,74.63427734375,74.634033203125,74.63427734375,471.491943359375-.06298828125,942.983642578125-.125732421875,1414.4755859375-.188720703125,63.374877929688-118.8173828125,126.749877929688-237.634765625,190.124755859375-356.4521484375-63.374877929688-118.62158203125-126.749877929688-237.2431640625-190.124755859375-355.86474609375ZM703.192956635055,706.24993505308h-94v-287.5l-68,44v-93l117.5-76h44.5v412.5ZM1089.690026947555,321.24993505308l-218,385h-111l190-330h-177.5v-82.5h316.5v27.5ZM1363.684167572555,537.24993505308h-90v90h-76.5v-90h-90v-76.5h90v-90h76.5v90h90v76.5Z"/>
</svg>