<?xml version="1.0" encoding="UTF-8"?>
<svg id="_--WorkSpace" data-name="--WorkSpace" xmlns="http://www.w3.org/2000/svg" viewBox="0 0 1000 999.999999999998">
  <path d="M781.712027964904,143.65271721743H218.287955699279c-41.21923828125,0-74.6337890625,33.4150390625-74.6337890625,74.63427734375v563.426025390625c0,41.219482421875,33.41455078125,74.63427734375,74.6337890625,74.63427734375h563.424072265625c41.21923828125,0,74.634033203125-33.414794921875,74.634033203125-74.63427734375V218.28699456118c0-41.21923828125-33.414794921875-74.63427734375-74.634033203125-74.63427734375ZM548.674186168029,259.375007256493l-13.19921875,324.5h-70.9501953125l-13.2001953125-324.5h97.349609375ZM544.549186168029,722.199226006493c-12.2890625,12.28125-27.224609375,18.42578125-44.82421875,18.42578125-17.2392578125,0-31.994140625-6.14453125-44.275390625-18.42578125-12.2890625-12.2802734375-18.4248046875-27.03515625-18.4248046875-44.275390625,0-17.599609375,6.1357421875-32.53515625,18.4248046875-44.82421875,12.28125-12.28125,27.0361328125-18.42578125,44.275390625-18.42578125,17.599609375,0,32.53515625,6.14453125,44.82421875,18.42578125,12.28125,12.2890625,18.42578125,27.224609375,18.42578125,44.82421875,0,17.240234375-6.14453125,31.9951171875-18.42578125,44.275390625Z"/>
</svg>