<?xml version="1.0" encoding="UTF-8"?>
<svg id="_--WorkSpace" data-name="--WorkSpace" xmlns="http://www.w3.org/2000/svg" viewBox="0 0 1000 999.999999999998">
  <circle cx="498.947778818826" cy="499.324991092158" r="126.078071564777"/>
  <path d="M498.947778818829,257.504729642249c-133.553811070578,0-241.82026144991,108.267097909827-241.82026144991,241.81896638893,0,133.554458601062,108.266450379331,241.821556510884,241.82026144991,241.821556510884,133.55316354008,0,241.8202614499-108.267097909822,241.8202614499-241.821556510884,0-133.551868479102-108.26709790982-241.81896638893-241.8202614499-241.81896638893ZM498.947778818829,703.110606626828c-112.36790850231,0-203.78561553468-91.418354562851-203.78561553468-203.786910595649,0-112.365965910838,91.417707032369-203.784320473689,203.78561553468-203.784320473689s203.78561553466,91.418354562851,203.78561553466,203.784320473689c0,112.368556032798-91.41770703236,203.786910595649-203.78561553466,203.786910595649Z"/>
  <path d="M846.911885702199,381.374722236498c-8.11614716029-36.804337984438-31.6182662909-143.381381315648-119.410450110359-218.860125339339-89.600736477731-77.03281719943-201.19355098364-83.008228560149-203.06167644698-77.592283542699-1.772938481321,5.14009702876,95.189572135991,20.93725086015,173.20080790564,99.262538917399,16.56253487044,16.628582980411,30.430695372441,34.233641939571,42.08365406853,52.11066370449-63.443094808081-58.10679604088-147.964602123109-93.573336033211-240.776442300201-93.573336033211-196.947046030939,0-356.60345867951,159.656412648581-356.60345867951,356.602811149018,0,9.973264605309.429960245281,19.84421939321,1.232898052751,29.611569302731.40729667814,25.9685627666,3.06540933914,57.19118792818,10.67324506488,91.690317368608,8.116147160301,36.804337984442,31.618266290901,143.381381315652,119.410450110361,218.860125339339,89.600736477729,77.032817199433,201.19355098364,83.008228560149,203.061676446969,77.592283542697,1.77293848133-5.140097028758-95.18957213598-20.937250860145-173.20080790563-99.262538917399-16.85910383481-16.926447005757-30.925408666719-34.865631697707-42.706578399799-53.072894012472,63.13875547783,56.684819085087,146.60219797237,91.183948525515,238.132575309979,91.183948525515,194.01891315564,0,351.84281451782-154.944980804132,356.492730965731-347.845608803727.403411495199.959640186018.8068229904,1.917985311058,1.21023448561,2.876330436098,1.985976012491-30.28500101222,2.07209756765-76.023964696182-9.738858567971-129.583801637049ZM696.97943842032,697.356650693653c-52.89611818873,52.895470658241-123.225052226311,82.026572337472-198.031659601491,82.026572337472s-145.135541412768-29.131101679232-198.0316596015-82.026572337472c-52.896765719219-52.896765719215-82.02721986796-123.225052226313-82.02721986796-198.031659601496s29.130454148741-145.134893882278,82.02721986796-198.031659601496c52.896118188732-52.895470658241,123.225052226311-82.02657233747,198.0316596015-82.02657233747s145.135541412761,29.13110167923,198.031659601491,82.02657233747c52.896765719221,52.896765719219,82.02721986796,123.225052226317,82.02721986796,198.031659601496s-29.130454148739,145.134893882281-82.02721986796,198.031659601496Z"/>
</svg>