<?xml version="1.0" encoding="UTF-8"?>
<svg id="_--WorkSpace" data-name="--WorkSpace" xmlns="http://www.w3.org/2000/svg" viewBox="0 0 999.999999999998 999.999999999998">
  <path d="M689.412082787359,241.513683683059l-19.76624443634,19.765586197811c22.90472568688,18.233206929521,42.817099074049,40.065662071689,58.882726566058,64.63507296884l23.259516247712-23.259516247701c11.057090613789,19.26795787873,31.81793344978,32.256320302311,55.62642062092,32.256320302311,35.40533336913,0,64.10716567796-28.70183230883,64.10716567796-64.10848215499,0-35.40533336913-28.70183230883-64.10716567796-64.10716567796-64.10716567796-4.048166881472,0-8.001547416439.39231015632-11.84171092643,1.10979014019.920217447199-4.3233105817,1.413896335191-8.803281930521,1.413896335191-13.400419735421,0-35.40664984616-28.70183230883-64.10848215499-64.10716567796-64.10848215499-35.406649846162,0-64.108482154992,28.70183230883-64.108482154992,64.10848215499,0,18.629466516941,7.952837766152,35.394801552851,20.641043425841,47.10881420692Z"/>
  <path d="M303.073466299029,751.369441467772l47.94214416982-47.942144169832c-24.889314816559-16.225579451719-46.65857906107-36.133345169274-64.692339719839-58.825459815052l-44.971513741211,44.972171979723c-11.75877287324-13.833540679811-29.277132772959-22.62102488591-48.855779231859-22.62102488591-35.405333369121,0-64.10716567795,28.70183230883-64.10716567795,64.107165677957,0,35.406649846158,28.701832308829,64.108482154988,64.10716567795,64.108482154988,4.5971378049,0,9.07842563076-.494995365018,13.40173621246-1.413896335183-.71747998387,3.838847032959-1.10979014019,7.793544044962-1.10979014019,11.841710926426,0,35.405333369126,28.70183230883,64.107165677957,64.10716567796,64.107165677957s64.10716567795-28.70183230883,64.10716567795-64.107165677957c0-22.836927119588-11.94966204326-42.871074632469-29.92878890509-54.227005533117Z"/>
  <path d="M194.36010925697,333.048331900331c21.328244437909,0,40.21179102253-10.425181637171,51.86656221004-26.448023625562l22.92381460387,22.923814603881c15.698330399351-24.851136982559,35.28750867453-47.008761952289,57.91906537672-65.597417681151l-15.837876965021-15.837218726498c13.44517995459-11.752190488081,21.95093807529-29.013837366041,21.95093807529-48.273896382561,0-35.40533336913-28.703148785869-64.10848215499-64.108482154988-64.10848215499s-64.10716567796,28.70314878586-64.10716567796,64.10848215499c0,2.00894395483.104001685741,3.99419132304.28567551651,5.95705858166-3.542639700159-.606895912961-7.17743279276-.93996460272-10.89253098446-.93996460272-35.40664984616,0-64.108482155001,28.701832308829-64.108482155001,64.107165677959s28.701832308841,64.108482154992,64.108482155001,64.108482154992Z"/>
  <path d="M807.504022224059,671.521159886839c-19.926196396038,0-37.728915335229,9.091590401098-49.48637173144,23.352986117159l-47.104864775809-47.104864775811c-18.3806523574,22.474895935069-40.425060302141,42.139113401219-65.53291030646,57.985547466964l48.255465704078,48.254149227036c-15.17239782403,11.724544470344-24.95382219127,30.086766149256-24.95382219127,50.744923776543,0,35.405333369126,28.701832308841,64.107165677957,64.10716567796,64.107165677957,35.406649846162,0,64.10848215499-28.70183230883,64.10848215499-64.107165677957,0-2.010260431867-.10531816277-3.994191323043-.28567551651-5.957058581665,3.54263970017.606895912963,7.17743279276.93996460272,10.89253098446.93996460272,35.40533336913,0,64.10716567796-28.701832308827,64.10716567796-64.107165677953,0-35.406649846162-28.70183230883-64.108482154992-64.10716567796-64.108482154992Z"/>
  <path d="M637.857525634519,698.232478919321c25.2822832114-15.641063648345,47.393831484911-35.280268050836,65.68825459654-57.830203176876l-.09610282352-.096102823529c36.80343197989-45.160428195675,58.882068327541-102.798425725501,58.882068327541-165.598329708078,0-48.5227105421-13.185175740262-93.96354834615-36.15177584776-132.951015726478-.236307627722-.400209018531-.471298778401-.80041803705-.70958112166-1.19931057854-1.36518668491-2.290670040249-2.761968818641-4.560276447941-4.194295832311-6.80355331493-16.930552903759-26.461188395899-38.477990767929-49.694375102919-63.491054425749-68.567389871259-.38836072521-.292257901679-.77408849636-.58846523447-1.163765698609-.879406659129-4.716937215051-3.51894311354-9.558281509871-6.878592505902-14.510868114121-10.080264654101-.753683102321-.487096502809-1.512632112779-.964977666368-2.271581123241-1.44417530698-2.42100126667-1.529746314229-4.86964855107-3.019998317419-7.343308899119-4.472072486609-1.02553560997-.60163000482-2.051729458461-1.201943532609-3.08648040767-1.790408767079-1.425744628501-.81094985333-2.854122211071-1.61926675259-4.296322802489-2.405203542261-2.052387696982-1.115056048318-4.121889595401-2.20378255596-6.20718921825-3.2661795229-1.25921028361-.64244079289-2.528294144991-1.267767384339-3.798694483401-1.890461021711-1.9279806172-.94259755679-3.86649305068-1.866764435099-5.820803208579-2.763285295679-1.250653182891-.57530046413-2.508546989471-1.137436157909-3.769731988641-1.692989466519-2.078717237671-.91363506203-4.169941007171-1.806206491501-6.276304262561-2.668498949181-.84122882512-.34360050603-1.678508219138-.696416351309-2.523686475368-1.032117995141-2.74682933274-1.09004298467-5.518013490622-2.132692796089-8.30960304254-3.131898865369-.687859250591-.247497682511-1.378351455251-.488412979841-2.068843659912-.729328277179-3.014074170758-1.050548673631-6.045920781498-2.062919513251-9.108046364028-3.005517070042-.197471555191-.060557943589-.396917825939-.117166456081-.594389381131-.177724399678-6.819351039339-2.080033714701-13.7532355807-3.896772022481-20.79572947741-5.423885382641-.01974715552-.0039494311-.03949431103-.007898862199-.059899705069-.01316477034-17.975835669251-3.892822591381-36.63821411205-5.94389381132-55.779790195462-5.94389381132-23.472785527309,0-46.222825162609,3.088455123219-67.871631758459,8.874371690381-.165217867841.04344374215-.329119258651.08952043836-.4943371265.134280657539-3.493930049881.93996460272-6.96087232056,1.94838601124-10.3962191424,3.027897179631-.102685208711.032911925859-.204712178891.068456805799-.307397387591.100052254629-3.25959713772,1.030801518109-6.488257065139,2.130059842018-9.69124569037,3.28197724731-.308055626101.11058407091-.62006068331.21458575665-.92745807089.32780278162-2.974579859731,1.08214412246-5.915589555081,2.234061527761-8.83882681045,3.42020733595-.75302486381.305422672029-1.506707966129.61084534407-2.25644163735.92285040127-2.69877792097,1.125587864601-5.373201016811,2.29461947135-8.02590224157,3.505778343198-.92679983237.423905605152-1.84701727957.860975980642-2.76855120381,1.295413402071-2.25446692179,1.061080489901-4.492477880649,2.1524399516-6.711399922511,3.275394862141-1.224323642189.62137716034-2.440090183669,1.257235568059-3.653882009588,1.895726929848-1.773952804149.934698694582-3.53474083796,1.88914454469-5.284338816971,2.86202107327-1.261843237689.701682259452-2.52368647537,1.403364518912-3.773023181229,2.126110410911-1.994462707449,1.151917405301-3.96786178235,2.33543025942-5.92875432542,3.53869026907-1.288831016891.79120269781-2.57107964862,1.590304257821-3.844771179611,2.40257058818-1.868080912129,1.190095239301-3.721022338359,2.403887065222-5.556191324631,3.640059000732-1.433643490698.966294143418-2.851489256989,1.953651919379-4.265385592169,2.94759208052-1.12690434164.791202697808-2.243935105509,1.59557016597-3.358332915321,2.405203542259-2.04448883477,1.484986095051-4.06593932143,2.998934684869-6.065667937019,4.54052929241-1.018294986279.785936789671-2.033957018491,1.57582301044-3.04040371146,2.37492457046-23.78215763045,18.904610217171-44.21651416185,41.841589591389-60.27095159907,67.7669718342h0c-24.720805756131,40.019585375481-38.999315673651,87.171843324537-38.999315673651,137.665319987467,0,61.284638915728,21.018872334782,117.657502015278,56.23594948796,162.312403029664l-.190230931508.190889170019c17.931075450069,22.773736221927,39.734568097479,42.686767847619,64.789759020408,58.726724037453l.17904087671-.179040876708c8.77168648169,5.618723983767,17.90013823976,10.729287832171,27.3432280091,15.290880757137v75.655302225663c-.022380109591,1.423111674423.13823008864,3.447853353675,1.0531816277,5.691130220668,2.515787613162,6.162428999065,9.353569330991,10.598956605743,18.774278990741,13.804578185049-8.69138138257-14.718213247077-7.090545308471-29.038850429693,0-33.913764888901,4.09819300878-2.817260854092,10.43702993049-2.758019387533,14.51547578375,0,7.58422419646,5.128994526887,9.061311429299,20.746361588612,0,37.603850016945,8.816446700859,1.671925833973,18.687391506459,2.746171094223,28.845328305599,3.439954491467-8.851991580799-13.979669630651-7.073431107019-28.118632982492,0-32.948787222518,4.100825962851-2.800146652644,10.431764022351-2.777766543055,14.514159306711,0,7.165584499451,4.874914459204,8.93229667991,19.274540263901,0,33.703128563357,9.953882858781.375195954868,19.80244755479.496311842053,28.845328305601.559502739714-8.701913198851-13.094997063385-6.91808681693-26.808738333042,0-31.563853382097,4.088977669539-2.809361991884,10.43044754531-2.806729037813,14.51547578375,0,6.92861863321,4.759064480157,8.711128538089,18.499135290509,0,31.640209050107,9.64056132453.027646017727,19.37064308743-.019747155518,28.845328305601-.340967551969-8.971790990952-14.606312699128-7.205078810481-29.105990758457,0-33.998019419112,4.085028238429-2.773817111949,10.412016866829-2.796197221538,14.515475783739,0,7.111608941041,4.847268441477,8.89411884591,19.086284047949,0,33.243678078274,10.358041308411-.74644247863,20.14999749193-1.972082597862,28.84532830561-3.973127690489-8.94282849619-16.752170265565-7.526299206929-32.249737917136,0-37.365567673678,4.065281082911-2.764601772706,10.4225486831-2.843590394783,14.515475783741,0,6.90755500066,4.798558791197,8.46758028669,18.688707983496,0,32.802658271681,7.87384914408-3.341218713875,14.06392416087-7.815924154555,17.86196040576-13.820375909465,1.15586683639-1.828586601088,1.868080912118-3.445220399604,2.29856890245-4.564225879032v-75.655302225663c8.14372693617-3.933633379453,16.04390562094-8.287222932948,23.69132071505-13.01074253317l.193522124089.193522124089ZM384.39620215873,595.305038444427c-36.906117188591-2.468394439915-72.32461532806-33.377958735808-72.2574749993-72.2574749993.072406236908-42.331319048273,42.166759418949-67.016579924471,72.2574749993-72.257474999304,25.086786371758-4.369387277911,63.14350448862,1.06239696694,78.920165271529,28.545171541711,11.30590477333,19.693179960912,5.73589043985,41.242592540639,3.83621407889,48.589850870867-7.91860936326,30.635737072691-38.122541968591,70.364381023515-82.75637935042,67.379927586026ZM542.11278386053,666.189427896619c-6.35858407723,9.547091455079-23.474102004351,9.523394868454-41.987718542241,9.498381804799-18.470172795749-.026329540691-34.12571769147-.047393173249-40.34212224896-9.041564273786-12.083942700789-17.484131496811,11.667935957859-68.633213722984,40.310526800131-69.000510815644,28.825581150079-.368613569695,53.825480037558,50.814697059377,42.01931399107,68.543693284631ZM532.847418490859,527.925110858401c-1.899676360959-7.347258330228-7.46969069445-28.896670909955,3.83621407889-48.589850870867,15.776660782911-27.482774574772,53.833378899759-32.914558819622,78.92016527152-28.545171541711,30.09071558036,5.240895074832,72.185068762399,29.926155951031,72.2574749993,72.257474999304.067140328771,38.879516263492-35.351357810701,69.789080559385-72.2574749993,72.2574749993-44.633837381829,2.98445343749-74.83776998716-36.744190513335-82.75637935041-67.379927586026Z"/>
</svg>