<?xml version="1.0" encoding="UTF-8"?>
<svg id="_--WorkSpace" data-name="--WorkSpace" xmlns="http://www.w3.org/2000/svg" viewBox="0 0 2509.86151770622 1000.000000000001">
  <polygon points="1656.928490856755 421.250053994971 1610.928490856755 541.250053994971 1703.928490856755 541.250053994971 1657.928490856755 421.250053994971 1656.928490856755 421.250053994971"/>
  <path d="M2322.359643200505,143.652641885596H187.50197718488c-41.21923828125,0-74.63427734375,33.4150390625-74.63427734375,74.63427734375v563.426025390625c0,41.219482421875,33.4150390625,74.63427734375,74.63427734375,74.63427734375h2134.857666015625c41.21923828125,0,74.634033203125-33.414794921875,74.634033203125-74.63427734375V218.286919229346c0-41.21923828125-33.414794921875-74.63427734375-74.634033203125-74.63427734375ZM486.448022106755,428.750053994971l-179.000244140625,70,179.000244140625,69v71l-273.500244140625-111v-59l273.500244140625-111v71ZM1058.443139294255,706.250053994971h-104l-66-231.5-66,231.5h-104.5l-117.5-412.5h104.5l70.5,283h2.5l75-283h71l75,283h2.5l70.5-283h104l-117.5,412.5ZM1434.437279919255,376.250053994971h-142v82h136v82.5h-136v83h142v82.5h-236v-412.5h236v82.5ZM1766.428490856755,706.250053994971l-30.5-82.5h-157l-30.5,82.5h-101l166.5-412.5h87l166.5,412.5h-101ZM2129.425561169255,706.250053994971l-151.9990234375-175v175h-94v-412.5h94v168.5l141.4990234375-168.5h114l-166,195.5,192,217h-129.5Z"/>
</svg>