<svg xmlns="http://www.w3.org/2000/svg" viewBox="0 0 100 100" fill="none">
  <!-- Cauldron body -->
  <path d="M 20 35 Q 15 55 20 70 L 80 70 Q 85 55 80 35 Z" 
        fill="#8b4513" 
        stroke="#5d2e0f" 
        stroke-width="2"/>
  
  <!-- Cauldron rim -->
  <ellipse cx="50" cy="35" rx="32" ry="8" 
           fill="#a0522d" 
           stroke="#5d2e0f" 
           stroke-width="2"/>
  
  <!-- Cauldron base -->
  <ellipse cx="50" cy="70" rx="30" ry="6" 
           fill="#5d2e0f"/>
  
  <!-- Left leg -->
  <rect x="22" y="70" width="6" height="15" 
        rx="1" 
        fill="#5d2e0f"/>
  
  <!-- Center leg -->
  <rect x="47" y="70" width="6" height="15" 
        rx="1" 
        fill="#5d2e0f"/>
  
  <!-- Right leg -->
  <rect x="72" y="70" width="6" height="15" 
        rx="1" 
        fill="#5d2e0f"/>
  
  <!-- Left handle -->
  <path d="M 20 45 Q 10 45 10 50 Q 10 55 20 55" 
        fill="none" 
        stroke="#5d2e0f" 
        stroke-width="3" 
        stroke-linecap="round"/>
  
  <!-- Right handle -->
  <path d="M 80 45 Q 90 45 90 50 Q 90 55 80 55" 
        fill="none" 
        stroke="#5d2e0f" 
        stroke-width="3" 
        stroke-linecap="round"/>
  
  <!-- Steam/bubbles -->
  <circle cx="35" cy="28" r="3" fill="#e8e8e8" opacity="0.7"/>
  <circle cx="50" cy="25" r="4" fill="#e8e8e8" opacity="0.7"/>
  <circle cx="65" cy="28" r="3" fill="#e8e8e8" opacity="0.7"/>
  
  <!-- More steam -->
  <circle cx="42" cy="20" r="2.5" fill="#e8e8e8" opacity="0.5"/>
  <circle cx="55" cy="18" r="3" fill="#e8e8e8" opacity="0.5"/>
  <circle cx="48" cy="15" r="2" fill="#e8e8e8" opacity="0.4"/>
</svg>
